<svg version="1.1" id="1440489707" xmlns="http://www.w3.org/2000/svg" xmlns:xlink="http://www.w3.org/1999/xlink" x="0px" y="0px" viewBox="0 0 118.3 115" style="enable-background:new 0 0 118.3 115;" xml:space="preserve" class="svg u_1440489707" data-icon-custom="true" data-icon-name="shhopping_bag.svg"> <title id="1787758118">Ресурс 10</title> 
 <path d="M31.3,108.7c-3.7,0-7.1-1.5-9.7-4.2c-2.6-2.7-3.9-6.2-3.8-9.9L20,37.8c0.1-2.7,2.3-4.8,5-4.8h13.4v-6.6
	c0-11.1,9-20.1,20.1-20.1c11.1,0,20.1,9,20.1,20.1V33H92c2.6,0,4.8,2.1,5,4.8l3.4,56.6c0.2,3.7-1.1,7.4-3.8,10
	c-2.6,2.8-6.2,4.3-9.8,4.3H31.3z M24.9,101.6c1.6,1.8,3.9,2.7,6.5,2.7h55.7c2.4,0,4.6-1,6.5-2.8c1.7-1.7,2.6-4.2,2.4-6.8l-3.3-57.3
	h-14v22.9h-4.4V37.4H43.1v22.9h-4.4V37.4H24.7l-2.3,57.5C22.4,97.6,23.2,99.9,24.9,101.6z M58.7,10.6c-8.6,0-15.6,7-15.6,15.6v6.6
	h31.3v-6.6C74.3,17.4,67.5,10.6,58.7,10.6z" id="1447788433"></path> 
</svg>