<?xml version="1.0" encoding="utf-8"?>
<!-- Generator: Adobe Illustrator 26.0.3, SVG Export Plug-In . SVG Version: 6.00 Build 0)  -->
<svg version="1.1" id="Layer_1" xmlns="http://www.w3.org/2000/svg" xmlns:xlink="http://www.w3.org/1999/xlink" x="0px" y="0px"
	 viewBox="0 0 172 17" style="enable-background:new 0 0 172 17;" xml:space="preserve">
<style type="text/css">
	.st0{fill:#FFFFFF;filter:url(#Adobe_OpacityMaskFilter);}
	
		.st1{mask:url(#path-1-outside-1_26_882_00000127006535841968837060000007785107421403379896_);fill:none;stroke:#000000;stroke-width:0.6;}
	.st2{fill:#FFFFFF;filter:url(#Adobe_OpacityMaskFilter_00000108294133764204455550000014133913006411258276_);}
	
		.st3{mask:url(#path-1-outside-1_26_882_00000110468932356811193670000012942845967886008984_);fill:none;stroke:#000000;stroke-width:0.6;}
	.st4{fill:#FFFFFF;filter:url(#Adobe_OpacityMaskFilter_00000023965369020079631450000002016593565487331724_);}
	
		.st5{mask:url(#path-1-outside-1_26_882_00000172422492212958787430000017922486753612797870_);fill:none;stroke:#000000;stroke-width:0.6;}
	.st6{fill:#FFFFFF;filter:url(#Adobe_OpacityMaskFilter_00000155125413927133746330000008604298925129312427_);}
	
		.st7{mask:url(#path-1-outside-1_26_882_00000119115536955192463090000007736932402737573557_);fill:none;stroke:#000000;stroke-width:0.6;}
	.st8{fill:#FFFFFF;filter:url(#Adobe_OpacityMaskFilter_00000124884635908020640530000017277201958582185614_);}
	
		.st9{mask:url(#path-1-outside-1_26_882_00000039844185682096997860000018154060119873764030_);fill:none;stroke:#000000;stroke-width:0.6;}
	.st10{fill:#FFFFFF;filter:url(#Adobe_OpacityMaskFilter_00000052817383342966382550000015913730437831826606_);}
	
		.st11{mask:url(#path-1-outside-1_26_882_00000146491327157807008720000007826493035282865594_);fill:none;stroke:#000000;stroke-width:0.6;}
	.st12{fill:#FFFFFF;filter:url(#Adobe_OpacityMaskFilter_00000150061780344587267510000004631265656406936495_);}
	
		.st13{mask:url(#path-1-outside-1_26_882_00000105410699806201907730000000690656629338451352_);fill:none;stroke:#000000;stroke-width:0.6;}
	.st14{fill:#FFFFFF;filter:url(#Adobe_OpacityMaskFilter_00000091002869121489019340000011349556937869785999_);}
	
		.st15{mask:url(#path-1-outside-1_26_882_00000109710264159057906090000015001453580548951711_);fill:none;stroke:#000000;stroke-width:0.6;}
	.st16{fill:#FFFFFF;filter:url(#Adobe_OpacityMaskFilter_00000000211947922952434930000005327187777022791597_);}
	
		.st17{mask:url(#path-1-outside-1_26_882_00000034805486450128816740000016967279532109295018_);fill:none;stroke:#000000;stroke-width:0.6;}
</style>
<path d="M3.6,7.2h11.3v2.5H3.6V7.2z M14.4,1.3h2.9v14.4h-2.9V1.3z M1,1.3h2.9v14.4H1V1.3z"/>
<path d="M23,12.6v-2.5h9.5v2.5H23z M19.5,15.7l6.7-14.4h3.2l6.8,14.4h-3.2l-5.9-13h1.4l-5.8,13H19.5z"/>
<path d="M51,9.3v-8H54v8.3c0,0.9-0.1,1.8-0.4,2.5c-0.3,0.7-0.6,1.3-1.1,1.8c-0.5,0.5-1.1,0.9-1.8,1.2c-0.7,0.3-1.4,0.5-2.2,0.6
	C47.6,15.9,46.8,16,46,16c-0.9,0-1.8-0.1-2.6-0.2c-0.8-0.1-1.6-0.3-2.2-0.6c-0.7-0.3-1.2-0.7-1.7-1.2c-0.5-0.5-0.9-1.1-1.1-1.8
	c-0.3-0.7-0.4-1.5-0.4-2.5V1.3h2.9v8c0,1.1,0.2,2,0.7,2.6c0.4,0.6,1,1,1.8,1.2c0.8,0.2,1.7,0.3,2.7,0.3c1,0,1.8-0.1,2.6-0.3
	c0.8-0.2,1.4-0.6,1.8-1.2C50.8,11.3,51,10.5,51,9.3z"/>
<path d="M56.4,10.8h3c0.1,0.5,0.3,1,0.7,1.4c0.4,0.4,1,0.7,1.6,1c0.7,0.2,1.4,0.3,2.2,0.3c0.8,0,1.4-0.1,1.9-0.2
	c0.5-0.2,0.8-0.4,1.1-0.7c0.2-0.3,0.4-0.7,0.4-1.1c0-0.4-0.1-0.7-0.4-0.9c-0.3-0.2-0.8-0.4-1.4-0.5c-0.6-0.1-1.5-0.3-2.5-0.4
	c-0.8-0.1-1.6-0.3-2.3-0.5c-0.7-0.2-1.4-0.5-1.9-0.8c-0.5-0.3-1-0.8-1.3-1.2c-0.3-0.5-0.5-1.1-0.5-1.8c0-0.8,0.2-1.6,0.7-2.2
	c0.5-0.6,1.2-1.1,2.1-1.5C60.7,1.2,61.8,1,63.2,1c2.1,0,3.6,0.4,4.8,1.3c1.1,0.9,1.7,2.1,1.6,3.6h-2.9c-0.1-0.9-0.4-1.5-1.1-1.9
	c-0.7-0.4-1.5-0.6-2.5-0.6c-0.9,0-1.7,0.1-2.3,0.4c-0.6,0.3-0.9,0.8-0.9,1.4c0,0.3,0.1,0.5,0.2,0.7c0.1,0.2,0.4,0.4,0.8,0.5
	c0.4,0.1,0.8,0.3,1.4,0.4c0.6,0.1,1.4,0.3,2.3,0.4c0.8,0.1,1.6,0.3,2.3,0.5c0.7,0.2,1.3,0.5,1.8,0.8c0.5,0.3,0.9,0.7,1.1,1.2
	c0.3,0.5,0.4,1.1,0.4,1.8c0,0.9-0.2,1.6-0.7,2.3c-0.4,0.6-1.1,1.1-2.1,1.5c-0.9,0.4-2.1,0.5-3.6,0.5c-1.1,0-2-0.1-2.8-0.3
	c-0.8-0.2-1.5-0.5-2.1-0.9c-0.6-0.4-1.1-0.8-1.4-1.3s-0.6-0.9-0.8-1.4C56.4,11.6,56.4,11.2,56.4,10.8z"/>
<path d="M86.3,16c-1.3,0-2.5-0.2-3.6-0.5c-1.1-0.3-2-0.8-2.8-1.4c-0.8-0.6-1.4-1.4-1.8-2.3c-0.4-0.9-0.6-2-0.6-3.2
	c0-1.2,0.2-2.3,0.6-3.2C78.6,4.4,79.2,3.6,80,3c0.8-0.7,1.8-1.1,2.9-1.5C84,1.2,85.2,1,86.6,1c1.6,0,3,0.2,4.2,0.7
	c1.2,0.4,2.1,1.1,2.7,1.9c0.7,0.8,1.1,1.8,1.1,2.9h-2.8c-0.2-0.6-0.5-1.1-1-1.5c-0.4-0.4-1-0.8-1.7-1c-0.7-0.3-1.6-0.4-2.6-0.4
	c-1.3,0-2.4,0.2-3.3,0.6c-0.9,0.4-1.6,1-2.1,1.8c-0.5,0.8-0.7,1.6-0.7,2.7c0,1,0.2,1.9,0.6,2.6c0.4,0.7,1,1.3,1.9,1.6
	c0.9,0.4,2,0.6,3.3,0.6c1,0,1.9-0.1,2.7-0.4c0.8-0.3,1.5-0.7,2-1.1c0.5-0.5,0.9-1,1.1-1.6l1.1-0.4c-0.2,1.9-0.9,3.4-2.2,4.5
	C90,15.4,88.3,16,86.3,16z M92.6,15.7c0-0.5,0-1,0.1-1.6c0.1-0.6,0.1-1.2,0.2-1.8c0.1-0.6,0.2-1.2,0.2-1.7h-6.5V8.7h8.5v7H92.6z"/>
<path d="M98.3,15.7V1.3h9.7c1.1,0,2.1,0.2,2.9,0.5c0.8,0.3,1.5,0.8,1.9,1.4c0.5,0.6,0.7,1.5,0.7,2.5c0,0.7-0.1,1.3-0.4,1.7
	s-0.6,0.9-1,1.2c-0.4,0.3-0.9,0.5-1.4,0.7c-0.5,0.1-1.1,0.2-1.7,0.3l-0.3-0.2c1,0,1.9,0.1,2.5,0.3c0.7,0.1,1.2,0.4,1.5,0.8
	c0.3,0.4,0.5,1,0.5,1.8v3.4h-2.9v-3.2c0-0.5-0.1-1-0.3-1.3c-0.2-0.3-0.5-0.5-1-0.6c-0.5-0.1-1.2-0.2-2.1-0.2h-5.6v5.3H98.3z
	 M101.2,8.1h6.8c0.8,0,1.5-0.2,1.9-0.6c0.4-0.4,0.7-0.9,0.7-1.6c0-0.7-0.2-1.1-0.7-1.5c-0.4-0.3-1.1-0.5-1.9-0.5h-6.8V8.1z"/>
<path d="M125,16c-1.9,0-3.5-0.3-4.9-0.9c-1.3-0.6-2.4-1.5-3.1-2.6c-0.7-1.1-1.1-2.4-1.1-4c0-1.6,0.4-2.9,1.1-4
	c0.7-1.1,1.8-2,3.1-2.6c1.4-0.6,3-0.9,4.9-0.9c1.9,0,3.5,0.3,4.9,0.9c1.3,0.6,2.4,1.4,3.1,2.6c0.7,1.1,1.1,2.5,1.1,4
	c0,1.6-0.4,2.9-1.1,4c-0.7,1.1-1.7,2-3.1,2.6C128.6,15.7,127,16,125,16z M125,13.4c1.2,0,2.2-0.2,3.1-0.5c0.9-0.4,1.6-0.9,2.1-1.6
	c0.5-0.7,0.8-1.6,0.8-2.8s-0.3-2-0.8-2.8c-0.5-0.7-1.2-1.3-2.1-1.6c-0.9-0.4-1.9-0.6-3.1-0.6c-1.2,0-2.2,0.2-3.1,0.6
	c-0.9,0.4-1.6,0.9-2.1,1.6c-0.5,0.7-0.8,1.6-0.8,2.8s0.3,2,0.8,2.8c0.5,0.7,1.2,1.3,2.1,1.6S123.9,13.4,125,13.4z"/>
<path d="M150.1,9.3v-8h2.9v8.3c0,0.9-0.1,1.8-0.4,2.5c-0.3,0.7-0.6,1.3-1.1,1.8c-0.5,0.5-1.1,0.9-1.8,1.2c-0.7,0.3-1.4,0.5-2.2,0.6
	c-0.8,0.1-1.6,0.2-2.5,0.2c-0.9,0-1.8-0.1-2.6-0.2c-0.8-0.1-1.6-0.3-2.2-0.6c-0.7-0.3-1.2-0.7-1.7-1.2c-0.5-0.5-0.9-1.1-1.1-1.8
	c-0.3-0.7-0.4-1.5-0.4-2.5V1.3h2.9v8c0,1.1,0.2,2,0.7,2.6c0.4,0.6,1,1,1.8,1.2c0.8,0.2,1.7,0.3,2.7,0.3c1,0,1.8-0.1,2.6-0.3
	c0.8-0.2,1.4-0.6,1.8-1.2C149.9,11.3,150.1,10.5,150.1,9.3z"/>
<path d="M159,11V8.7h6.5c0.8,0,1.4-0.2,1.9-0.6c0.5-0.4,0.7-1,0.7-1.8c0-0.8-0.2-1.4-0.7-1.8c-0.5-0.4-1.1-0.6-1.9-0.6h-6.2v11.9
	h-2.9V1.3h8.9c0.8,0,1.5,0.1,2.2,0.3c0.7,0.2,1.3,0.5,1.8,0.9c0.5,0.4,0.9,0.9,1.2,1.5c0.3,0.6,0.4,1.4,0.4,2.2
	c0,0.9-0.1,1.6-0.4,2.2s-0.7,1.1-1.2,1.5c-0.5,0.4-1.1,0.6-1.8,0.8c-0.7,0.2-1.4,0.2-2.2,0.2H159z"/>
<defs>
	<filter id="Adobe_OpacityMaskFilter" filterUnits="userSpaceOnUse" x="0.7" y="1" width="17" height="15">
		<feColorMatrix  type="matrix" values="1 0 0 0 0  0 1 0 0 0  0 0 1 0 0  0 0 0 1 0"/>
	</filter>
</defs>
<mask maskUnits="userSpaceOnUse" x="0.7" y="1" width="17" height="15" id="path-1-outside-1_26_882_00000127006535841968837060000007785107421403379896_">
	<rect y="0" class="st0" width="172" height="17"/>
	<path d="M3.6,7.2h11.3v2.5H3.6V7.2z M14.4,1.3h2.9v14.4h-2.9V1.3z M1,1.3h2.9v14.4H1V1.3z"/>
	<path d="M23,12.6v-2.5h9.5v2.5H23z M19.5,15.7l6.7-14.4h3.2l6.8,14.4h-3.2l-5.9-13h1.4l-5.8,13H19.5z"/>
	<path d="M51,9.3v-8H54v8.3c0,0.9-0.1,1.8-0.4,2.5c-0.3,0.7-0.6,1.3-1.1,1.8c-0.5,0.5-1.1,0.9-1.8,1.2c-0.7,0.3-1.4,0.5-2.2,0.6
		C47.6,15.9,46.8,16,46,16c-0.9,0-1.8-0.1-2.6-0.2c-0.8-0.1-1.6-0.3-2.2-0.6c-0.7-0.3-1.2-0.7-1.7-1.2c-0.5-0.5-0.9-1.1-1.1-1.8
		c-0.3-0.7-0.4-1.5-0.4-2.5V1.3h2.9v8c0,1.1,0.2,2,0.7,2.6c0.4,0.6,1,1,1.8,1.2c0.8,0.2,1.7,0.3,2.7,0.3c1,0,1.8-0.1,2.6-0.3
		c0.8-0.2,1.4-0.6,1.8-1.2C50.8,11.3,51,10.5,51,9.3z"/>
	<path d="M56.4,10.8h3c0.1,0.5,0.3,1,0.7,1.4c0.4,0.4,1,0.7,1.6,1c0.7,0.2,1.4,0.3,2.2,0.3c0.8,0,1.4-0.1,1.9-0.2
		c0.5-0.2,0.8-0.4,1.1-0.7c0.2-0.3,0.4-0.7,0.4-1.1c0-0.4-0.1-0.7-0.4-0.9c-0.3-0.2-0.8-0.4-1.4-0.5c-0.6-0.1-1.5-0.3-2.5-0.4
		c-0.8-0.1-1.6-0.3-2.3-0.5c-0.7-0.2-1.4-0.5-1.9-0.8c-0.5-0.3-1-0.8-1.3-1.2c-0.3-0.5-0.5-1.1-0.5-1.8c0-0.8,0.2-1.6,0.7-2.2
		c0.5-0.6,1.2-1.1,2.1-1.5C60.7,1.2,61.8,1,63.2,1c2.1,0,3.6,0.4,4.8,1.3c1.1,0.9,1.7,2.1,1.6,3.6h-2.9c-0.1-0.9-0.4-1.5-1.1-1.9
		c-0.7-0.4-1.5-0.6-2.5-0.6c-0.9,0-1.7,0.1-2.3,0.4c-0.6,0.3-0.9,0.8-0.9,1.4c0,0.3,0.1,0.5,0.2,0.7c0.1,0.2,0.4,0.4,0.8,0.5
		c0.4,0.1,0.8,0.3,1.4,0.4c0.6,0.1,1.4,0.3,2.3,0.4c0.8,0.1,1.6,0.3,2.3,0.5c0.7,0.2,1.3,0.5,1.8,0.8c0.5,0.3,0.9,0.7,1.1,1.2
		c0.3,0.5,0.4,1.1,0.4,1.8c0,0.9-0.2,1.6-0.7,2.3c-0.4,0.6-1.1,1.1-2.1,1.5c-0.9,0.4-2.1,0.5-3.6,0.5c-1.1,0-2-0.1-2.8-0.3
		c-0.8-0.2-1.5-0.5-2.1-0.9c-0.6-0.4-1.1-0.8-1.4-1.3s-0.6-0.9-0.8-1.4C56.4,11.6,56.4,11.2,56.4,10.8z"/>
	<path d="M86.3,16c-1.3,0-2.5-0.2-3.6-0.5c-1.1-0.3-2-0.8-2.8-1.4c-0.8-0.6-1.4-1.4-1.8-2.3c-0.4-0.9-0.6-2-0.6-3.2
		c0-1.2,0.2-2.3,0.6-3.2C78.6,4.4,79.2,3.6,80,3c0.8-0.7,1.8-1.1,2.9-1.5C84,1.2,85.2,1,86.6,1c1.6,0,3,0.2,4.2,0.7
		c1.2,0.4,2.1,1.1,2.7,1.9c0.7,0.8,1.1,1.8,1.1,2.9h-2.8c-0.2-0.6-0.5-1.1-1-1.5c-0.4-0.4-1-0.8-1.7-1c-0.7-0.3-1.6-0.4-2.6-0.4
		c-1.3,0-2.4,0.2-3.3,0.6c-0.9,0.4-1.6,1-2.1,1.8c-0.5,0.8-0.7,1.6-0.7,2.7c0,1,0.2,1.9,0.6,2.6c0.4,0.7,1,1.3,1.9,1.6
		c0.9,0.4,2,0.6,3.3,0.6c1,0,1.9-0.1,2.7-0.4c0.8-0.3,1.5-0.7,2-1.1c0.5-0.5,0.9-1,1.1-1.6l1.1-0.4c-0.2,1.9-0.9,3.4-2.2,4.5
		C90,15.4,88.3,16,86.3,16z M92.6,15.7c0-0.5,0-1,0.1-1.6c0.1-0.6,0.1-1.2,0.2-1.8c0.1-0.6,0.2-1.2,0.2-1.7h-6.5V8.7h8.5v7H92.6z"/>
	<path d="M98.3,15.7V1.3h9.7c1.1,0,2.1,0.2,2.9,0.5c0.8,0.3,1.5,0.8,1.9,1.4c0.5,0.6,0.7,1.5,0.7,2.5c0,0.7-0.1,1.3-0.4,1.7
		s-0.6,0.9-1,1.2c-0.4,0.3-0.9,0.5-1.4,0.7c-0.5,0.1-1.1,0.2-1.7,0.3l-0.3-0.2c1,0,1.9,0.1,2.5,0.3c0.7,0.1,1.2,0.4,1.5,0.8
		c0.3,0.4,0.5,1,0.5,1.8v3.4h-2.9v-3.2c0-0.5-0.1-1-0.3-1.3c-0.2-0.3-0.5-0.5-1-0.6c-0.5-0.1-1.2-0.2-2.1-0.2h-5.6v5.3H98.3z
		 M101.2,8.1h6.8c0.8,0,1.5-0.2,1.9-0.6c0.4-0.4,0.7-0.9,0.7-1.6c0-0.7-0.2-1.1-0.7-1.5c-0.4-0.3-1.1-0.5-1.9-0.5h-6.8V8.1z"/>
	<path d="M125,16c-1.9,0-3.5-0.3-4.9-0.9c-1.3-0.6-2.4-1.5-3.1-2.6c-0.7-1.1-1.1-2.4-1.1-4c0-1.6,0.4-2.9,1.1-4
		c0.7-1.1,1.8-2,3.1-2.6c1.4-0.6,3-0.9,4.9-0.9c1.9,0,3.5,0.3,4.9,0.9c1.3,0.6,2.4,1.4,3.1,2.6c0.7,1.1,1.1,2.5,1.1,4
		c0,1.6-0.4,2.9-1.1,4c-0.7,1.1-1.7,2-3.1,2.6C128.6,15.7,127,16,125,16z M125,13.4c1.2,0,2.2-0.2,3.1-0.5c0.9-0.4,1.6-0.9,2.1-1.6
		c0.5-0.7,0.8-1.6,0.8-2.8s-0.3-2-0.8-2.8c-0.5-0.7-1.2-1.3-2.1-1.6c-0.9-0.4-1.9-0.6-3.1-0.6c-1.2,0-2.2,0.2-3.1,0.6
		c-0.9,0.4-1.6,0.9-2.1,1.6c-0.5,0.7-0.8,1.6-0.8,2.8s0.3,2,0.8,2.8c0.5,0.7,1.2,1.3,2.1,1.6S123.9,13.4,125,13.4z"/>
	<path d="M150.1,9.3v-8h2.9v8.3c0,0.9-0.1,1.8-0.4,2.5c-0.3,0.7-0.6,1.3-1.1,1.8c-0.5,0.5-1.1,0.9-1.8,1.2c-0.7,0.3-1.4,0.5-2.2,0.6
		c-0.8,0.1-1.6,0.2-2.5,0.2c-0.9,0-1.8-0.1-2.6-0.2c-0.8-0.1-1.6-0.3-2.2-0.6c-0.7-0.3-1.2-0.7-1.7-1.2c-0.5-0.5-0.9-1.1-1.1-1.8
		c-0.3-0.7-0.4-1.5-0.4-2.5V1.3h2.9v8c0,1.1,0.2,2,0.7,2.6c0.4,0.6,1,1,1.8,1.2c0.8,0.2,1.7,0.3,2.7,0.3c1,0,1.8-0.1,2.6-0.3
		c0.8-0.2,1.4-0.6,1.8-1.2C149.9,11.3,150.1,10.5,150.1,9.3z"/>
	<path d="M159,11V8.7h6.5c0.8,0,1.4-0.2,1.9-0.6c0.5-0.4,0.7-1,0.7-1.8c0-0.8-0.2-1.4-0.7-1.8c-0.5-0.4-1.1-0.6-1.9-0.6h-6.2v11.9
		h-2.9V1.3h8.9c0.8,0,1.5,0.1,2.2,0.3c0.7,0.2,1.3,0.5,1.8,0.9c0.5,0.4,0.9,0.9,1.2,1.5c0.3,0.6,0.4,1.4,0.4,2.2
		c0,0.9-0.1,1.6-0.4,2.2s-0.7,1.1-1.2,1.5c-0.5,0.4-1.1,0.6-1.8,0.8c-0.7,0.2-1.4,0.2-2.2,0.2H159z"/>
</mask>
<path class="st1" d="M3.6,7.2h11.3v2.5H3.6V7.2z M14.4,1.3h2.9v14.4h-2.9V1.3z M1,1.3h2.9v14.4H1V1.3z"/>
<defs>
	
		<filter id="Adobe_OpacityMaskFilter_00000111880274017491304310000012614882126834890424_" filterUnits="userSpaceOnUse" x="19" y="1" width="17.6" height="15">
		<feColorMatrix  type="matrix" values="1 0 0 0 0  0 1 0 0 0  0 0 1 0 0  0 0 0 1 0"/>
	</filter>
</defs>
<mask maskUnits="userSpaceOnUse" x="19" y="1" width="17.6" height="15" id="path-1-outside-1_26_882_00000110468932356811193670000012942845967886008984_">
	
		<rect y="0" style="fill:#FFFFFF;filter:url(#Adobe_OpacityMaskFilter_00000111880274017491304310000012614882126834890424_);" width="172" height="17"/>
	<path d="M3.6,7.2h11.3v2.5H3.6V7.2z M14.4,1.3h2.9v14.4h-2.9V1.3z M1,1.3h2.9v14.4H1V1.3z"/>
	<path d="M23,12.6v-2.5h9.5v2.5H23z M19.5,15.7l6.7-14.4h3.2l6.8,14.4h-3.2l-5.9-13h1.4l-5.8,13H19.5z"/>
	<path d="M51,9.3v-8H54v8.3c0,0.9-0.1,1.8-0.4,2.5c-0.3,0.7-0.6,1.3-1.1,1.8c-0.5,0.5-1.1,0.9-1.8,1.2c-0.7,0.3-1.4,0.5-2.2,0.6
		C47.6,15.9,46.8,16,46,16c-0.9,0-1.8-0.1-2.6-0.2c-0.8-0.1-1.6-0.3-2.2-0.6c-0.7-0.3-1.2-0.7-1.7-1.2c-0.5-0.5-0.9-1.1-1.1-1.8
		c-0.3-0.7-0.4-1.5-0.4-2.5V1.3h2.9v8c0,1.1,0.2,2,0.7,2.6c0.4,0.6,1,1,1.8,1.2c0.8,0.2,1.7,0.3,2.7,0.3c1,0,1.8-0.1,2.6-0.3
		c0.8-0.2,1.4-0.6,1.8-1.2C50.8,11.3,51,10.5,51,9.3z"/>
	<path d="M56.4,10.8h3c0.1,0.5,0.3,1,0.7,1.4c0.4,0.4,1,0.7,1.6,1c0.7,0.2,1.4,0.3,2.2,0.3c0.8,0,1.4-0.1,1.9-0.2
		c0.5-0.2,0.8-0.4,1.1-0.7c0.2-0.3,0.4-0.7,0.4-1.1c0-0.4-0.1-0.7-0.4-0.9c-0.3-0.2-0.8-0.4-1.4-0.5c-0.6-0.1-1.5-0.3-2.5-0.4
		c-0.8-0.1-1.6-0.3-2.3-0.5c-0.7-0.2-1.4-0.5-1.9-0.8c-0.5-0.3-1-0.8-1.3-1.2c-0.3-0.5-0.5-1.1-0.5-1.8c0-0.8,0.2-1.6,0.7-2.2
		c0.5-0.6,1.2-1.1,2.1-1.5C60.7,1.2,61.8,1,63.2,1c2.1,0,3.6,0.4,4.8,1.3c1.1,0.9,1.7,2.1,1.6,3.6h-2.9c-0.1-0.9-0.4-1.5-1.1-1.9
		c-0.7-0.4-1.5-0.6-2.5-0.6c-0.9,0-1.7,0.1-2.3,0.4c-0.6,0.3-0.9,0.8-0.9,1.4c0,0.3,0.1,0.5,0.2,0.7c0.1,0.2,0.4,0.4,0.8,0.5
		c0.4,0.1,0.8,0.3,1.4,0.4c0.6,0.1,1.4,0.3,2.3,0.4c0.8,0.1,1.6,0.3,2.3,0.5c0.7,0.2,1.3,0.5,1.8,0.8c0.5,0.3,0.9,0.7,1.1,1.2
		c0.3,0.5,0.4,1.1,0.4,1.8c0,0.9-0.2,1.6-0.7,2.3c-0.4,0.6-1.1,1.1-2.1,1.5c-0.9,0.4-2.1,0.5-3.6,0.5c-1.1,0-2-0.1-2.8-0.3
		c-0.8-0.2-1.5-0.5-2.1-0.9c-0.6-0.4-1.1-0.8-1.4-1.3s-0.6-0.9-0.8-1.4C56.4,11.6,56.4,11.2,56.4,10.8z"/>
	<path d="M86.3,16c-1.3,0-2.5-0.2-3.6-0.5c-1.1-0.3-2-0.8-2.8-1.4c-0.8-0.6-1.4-1.4-1.8-2.3c-0.4-0.9-0.6-2-0.6-3.2
		c0-1.2,0.2-2.3,0.6-3.2C78.6,4.4,79.2,3.6,80,3c0.8-0.7,1.8-1.1,2.9-1.5C84,1.2,85.2,1,86.6,1c1.6,0,3,0.2,4.2,0.7
		c1.2,0.4,2.1,1.1,2.7,1.9c0.7,0.8,1.1,1.8,1.1,2.9h-2.8c-0.2-0.6-0.5-1.1-1-1.5c-0.4-0.4-1-0.8-1.7-1c-0.7-0.3-1.6-0.4-2.6-0.4
		c-1.3,0-2.4,0.2-3.3,0.6c-0.9,0.4-1.6,1-2.1,1.8c-0.5,0.8-0.7,1.6-0.7,2.7c0,1,0.2,1.9,0.6,2.6c0.4,0.7,1,1.3,1.9,1.6
		c0.9,0.4,2,0.6,3.3,0.6c1,0,1.9-0.1,2.7-0.4c0.8-0.3,1.5-0.7,2-1.1c0.5-0.5,0.9-1,1.1-1.6l1.1-0.4c-0.2,1.9-0.9,3.4-2.2,4.5
		C90,15.4,88.3,16,86.3,16z M92.6,15.7c0-0.5,0-1,0.1-1.6c0.1-0.6,0.1-1.2,0.2-1.8c0.1-0.6,0.2-1.2,0.2-1.7h-6.5V8.7h8.5v7H92.6z"/>
	<path d="M98.3,15.7V1.3h9.7c1.1,0,2.1,0.2,2.9,0.5c0.8,0.3,1.5,0.8,1.9,1.4c0.5,0.6,0.7,1.5,0.7,2.5c0,0.7-0.1,1.3-0.4,1.7
		s-0.6,0.9-1,1.2c-0.4,0.3-0.9,0.5-1.4,0.7c-0.5,0.1-1.1,0.2-1.7,0.3l-0.3-0.2c1,0,1.9,0.1,2.5,0.3c0.7,0.1,1.2,0.4,1.5,0.8
		c0.3,0.4,0.5,1,0.5,1.8v3.4h-2.9v-3.2c0-0.5-0.1-1-0.3-1.3c-0.2-0.3-0.5-0.5-1-0.6c-0.5-0.1-1.2-0.2-2.1-0.2h-5.6v5.3H98.3z
		 M101.2,8.1h6.8c0.8,0,1.5-0.2,1.9-0.6c0.4-0.4,0.7-0.9,0.7-1.6c0-0.7-0.2-1.1-0.7-1.5c-0.4-0.3-1.1-0.5-1.9-0.5h-6.8V8.1z"/>
	<path d="M125,16c-1.9,0-3.5-0.3-4.9-0.9c-1.3-0.6-2.4-1.5-3.1-2.6c-0.7-1.1-1.1-2.4-1.1-4c0-1.6,0.4-2.9,1.1-4
		c0.7-1.1,1.8-2,3.1-2.6c1.4-0.6,3-0.9,4.9-0.9c1.9,0,3.5,0.3,4.9,0.9c1.3,0.6,2.4,1.4,3.1,2.6c0.7,1.1,1.1,2.5,1.1,4
		c0,1.6-0.4,2.9-1.1,4c-0.7,1.1-1.7,2-3.1,2.6C128.6,15.7,127,16,125,16z M125,13.4c1.2,0,2.2-0.2,3.1-0.5c0.9-0.4,1.6-0.9,2.1-1.6
		c0.5-0.7,0.8-1.6,0.8-2.8s-0.3-2-0.8-2.8c-0.5-0.7-1.2-1.3-2.1-1.6c-0.9-0.4-1.9-0.6-3.1-0.6c-1.2,0-2.2,0.2-3.1,0.6
		c-0.9,0.4-1.6,0.9-2.1,1.6c-0.5,0.7-0.8,1.6-0.8,2.8s0.3,2,0.8,2.8c0.5,0.7,1.2,1.3,2.1,1.6S123.9,13.4,125,13.4z"/>
	<path d="M150.1,9.3v-8h2.9v8.3c0,0.9-0.1,1.8-0.4,2.5c-0.3,0.7-0.6,1.3-1.1,1.8c-0.5,0.5-1.1,0.9-1.8,1.2c-0.7,0.3-1.4,0.5-2.2,0.6
		c-0.8,0.1-1.6,0.2-2.5,0.2c-0.9,0-1.8-0.1-2.6-0.2c-0.8-0.1-1.6-0.3-2.2-0.6c-0.7-0.3-1.2-0.7-1.7-1.2c-0.5-0.5-0.9-1.1-1.1-1.8
		c-0.3-0.7-0.4-1.5-0.4-2.5V1.3h2.9v8c0,1.1,0.2,2,0.7,2.6c0.4,0.6,1,1,1.8,1.2c0.8,0.2,1.7,0.3,2.7,0.3c1,0,1.8-0.1,2.6-0.3
		c0.8-0.2,1.4-0.6,1.8-1.2C149.9,11.3,150.1,10.5,150.1,9.3z"/>
	<path d="M159,11V8.7h6.5c0.8,0,1.4-0.2,1.9-0.6c0.5-0.4,0.7-1,0.7-1.8c0-0.8-0.2-1.4-0.7-1.8c-0.5-0.4-1.1-0.6-1.9-0.6h-6.2v11.9
		h-2.9V1.3h8.9c0.8,0,1.5,0.1,2.2,0.3c0.7,0.2,1.3,0.5,1.8,0.9c0.5,0.4,0.9,0.9,1.2,1.5c0.3,0.6,0.4,1.4,0.4,2.2
		c0,0.9-0.1,1.6-0.4,2.2s-0.7,1.1-1.2,1.5c-0.5,0.4-1.1,0.6-1.8,0.8c-0.7,0.2-1.4,0.2-2.2,0.2H159z"/>
</mask>
<path class="st3" d="M23,12.6v-2.5h9.5v2.5H23z M19.5,15.7l6.7-14.4h3.2l6.8,14.4h-3.2l-5.9-13h1.4l-5.8,13H19.5z"/>
<defs>
	
		<filter id="Adobe_OpacityMaskFilter_00000137119432740291756430000017795048308735393982_" filterUnits="userSpaceOnUse" x="37.6" y="1" width="16.7" height="15.3">
		<feColorMatrix  type="matrix" values="1 0 0 0 0  0 1 0 0 0  0 0 1 0 0  0 0 0 1 0"/>
	</filter>
</defs>
<mask maskUnits="userSpaceOnUse" x="37.6" y="1" width="16.7" height="15.3" id="path-1-outside-1_26_882_00000172422492212958787430000017922486753612797870_">
	
		<rect y="0" style="fill:#FFFFFF;filter:url(#Adobe_OpacityMaskFilter_00000137119432740291756430000017795048308735393982_);" width="172" height="17"/>
	<path d="M3.6,7.2h11.3v2.5H3.6V7.2z M14.4,1.3h2.9v14.4h-2.9V1.3z M1,1.3h2.9v14.4H1V1.3z"/>
	<path d="M23,12.6v-2.5h9.5v2.5H23z M19.5,15.7l6.7-14.4h3.2l6.8,14.4h-3.2l-5.9-13h1.4l-5.8,13H19.5z"/>
	<path d="M51,9.3v-8H54v8.3c0,0.9-0.1,1.8-0.4,2.5c-0.3,0.7-0.6,1.3-1.1,1.8c-0.5,0.5-1.1,0.9-1.8,1.2c-0.7,0.3-1.4,0.5-2.2,0.6
		C47.6,15.9,46.8,16,46,16c-0.9,0-1.8-0.1-2.6-0.2c-0.8-0.1-1.6-0.3-2.2-0.6c-0.7-0.3-1.2-0.7-1.7-1.2c-0.5-0.5-0.9-1.1-1.1-1.8
		c-0.3-0.7-0.4-1.5-0.4-2.5V1.3h2.9v8c0,1.1,0.2,2,0.7,2.6c0.4,0.6,1,1,1.8,1.2c0.8,0.2,1.7,0.3,2.7,0.3c1,0,1.8-0.1,2.6-0.3
		c0.8-0.2,1.4-0.6,1.8-1.2C50.8,11.3,51,10.5,51,9.3z"/>
	<path d="M56.4,10.8h3c0.1,0.5,0.3,1,0.7,1.4c0.4,0.4,1,0.7,1.6,1c0.7,0.2,1.4,0.3,2.2,0.3c0.8,0,1.4-0.1,1.9-0.2
		c0.5-0.2,0.8-0.4,1.1-0.7c0.2-0.3,0.4-0.7,0.4-1.1c0-0.4-0.1-0.7-0.4-0.9c-0.3-0.2-0.8-0.4-1.4-0.5c-0.6-0.1-1.5-0.3-2.5-0.4
		c-0.8-0.1-1.6-0.3-2.3-0.5c-0.7-0.2-1.4-0.5-1.9-0.8c-0.5-0.3-1-0.8-1.3-1.2c-0.3-0.5-0.5-1.1-0.5-1.8c0-0.8,0.2-1.6,0.7-2.2
		c0.5-0.6,1.2-1.1,2.1-1.5C60.7,1.2,61.8,1,63.2,1c2.1,0,3.6,0.4,4.8,1.3c1.1,0.9,1.7,2.1,1.6,3.6h-2.9c-0.1-0.9-0.4-1.5-1.1-1.9
		c-0.7-0.4-1.5-0.6-2.5-0.6c-0.9,0-1.7,0.1-2.3,0.4c-0.6,0.3-0.9,0.8-0.9,1.4c0,0.3,0.1,0.5,0.2,0.7c0.1,0.2,0.4,0.4,0.8,0.5
		c0.4,0.1,0.8,0.3,1.4,0.4c0.6,0.1,1.4,0.3,2.3,0.4c0.8,0.1,1.6,0.3,2.3,0.5c0.7,0.2,1.3,0.5,1.8,0.8c0.5,0.3,0.9,0.7,1.1,1.2
		c0.3,0.5,0.4,1.1,0.4,1.8c0,0.9-0.2,1.6-0.7,2.3c-0.4,0.6-1.1,1.1-2.1,1.5c-0.9,0.4-2.1,0.5-3.6,0.5c-1.1,0-2-0.1-2.8-0.3
		c-0.8-0.2-1.5-0.5-2.1-0.9c-0.6-0.4-1.1-0.8-1.4-1.3s-0.6-0.9-0.8-1.4C56.4,11.6,56.4,11.2,56.4,10.8z"/>
	<path d="M86.3,16c-1.3,0-2.5-0.2-3.6-0.5c-1.1-0.3-2-0.8-2.8-1.4c-0.8-0.6-1.4-1.4-1.8-2.3c-0.4-0.9-0.6-2-0.6-3.2
		c0-1.2,0.2-2.3,0.6-3.2C78.6,4.4,79.2,3.6,80,3c0.8-0.7,1.8-1.1,2.9-1.5C84,1.2,85.2,1,86.6,1c1.6,0,3,0.2,4.2,0.7
		c1.2,0.4,2.1,1.1,2.7,1.9c0.7,0.8,1.1,1.8,1.1,2.9h-2.8c-0.2-0.6-0.5-1.1-1-1.5c-0.4-0.4-1-0.8-1.7-1c-0.7-0.3-1.6-0.4-2.6-0.4
		c-1.3,0-2.4,0.2-3.3,0.6c-0.9,0.4-1.6,1-2.1,1.8c-0.5,0.8-0.7,1.6-0.7,2.7c0,1,0.2,1.9,0.6,2.6c0.4,0.7,1,1.3,1.9,1.6
		c0.9,0.4,2,0.6,3.3,0.6c1,0,1.9-0.1,2.7-0.4c0.8-0.3,1.5-0.7,2-1.1c0.5-0.5,0.9-1,1.1-1.6l1.1-0.4c-0.2,1.9-0.9,3.4-2.2,4.5
		C90,15.4,88.3,16,86.3,16z M92.6,15.7c0-0.5,0-1,0.1-1.6c0.1-0.6,0.1-1.2,0.2-1.8c0.1-0.6,0.2-1.2,0.2-1.7h-6.5V8.7h8.5v7H92.6z"/>
	<path d="M98.3,15.7V1.3h9.7c1.1,0,2.1,0.2,2.9,0.5c0.8,0.3,1.5,0.8,1.9,1.4c0.5,0.6,0.7,1.5,0.7,2.5c0,0.7-0.1,1.3-0.4,1.7
		s-0.6,0.9-1,1.2c-0.4,0.3-0.9,0.5-1.4,0.7c-0.5,0.1-1.1,0.2-1.7,0.3l-0.3-0.2c1,0,1.9,0.1,2.5,0.3c0.7,0.1,1.2,0.4,1.5,0.8
		c0.3,0.4,0.5,1,0.5,1.8v3.4h-2.9v-3.2c0-0.5-0.1-1-0.3-1.3c-0.2-0.3-0.5-0.5-1-0.6c-0.5-0.1-1.2-0.2-2.1-0.2h-5.6v5.3H98.3z
		 M101.2,8.1h6.8c0.8,0,1.5-0.2,1.9-0.6c0.4-0.4,0.7-0.9,0.7-1.6c0-0.7-0.2-1.1-0.7-1.5c-0.4-0.3-1.1-0.5-1.9-0.5h-6.8V8.1z"/>
	<path d="M125,16c-1.9,0-3.5-0.3-4.9-0.9c-1.3-0.6-2.4-1.5-3.1-2.6c-0.7-1.1-1.1-2.4-1.1-4c0-1.6,0.4-2.9,1.1-4
		c0.7-1.1,1.8-2,3.1-2.6c1.4-0.6,3-0.9,4.9-0.9c1.9,0,3.5,0.3,4.9,0.9c1.3,0.6,2.4,1.4,3.1,2.6c0.7,1.1,1.1,2.5,1.1,4
		c0,1.6-0.4,2.9-1.1,4c-0.7,1.1-1.7,2-3.1,2.6C128.6,15.7,127,16,125,16z M125,13.4c1.2,0,2.2-0.2,3.1-0.5c0.9-0.4,1.6-0.9,2.1-1.6
		c0.5-0.7,0.8-1.6,0.8-2.8s-0.3-2-0.8-2.8c-0.5-0.7-1.2-1.3-2.1-1.6c-0.9-0.4-1.9-0.6-3.1-0.6c-1.2,0-2.2,0.2-3.1,0.6
		c-0.9,0.4-1.6,0.9-2.1,1.6c-0.5,0.7-0.8,1.6-0.8,2.8s0.3,2,0.8,2.8c0.5,0.7,1.2,1.3,2.1,1.6S123.9,13.4,125,13.4z"/>
	<path d="M150.1,9.3v-8h2.9v8.3c0,0.9-0.1,1.8-0.4,2.5c-0.3,0.7-0.6,1.3-1.1,1.8c-0.5,0.5-1.1,0.9-1.8,1.2c-0.7,0.3-1.4,0.5-2.2,0.6
		c-0.8,0.1-1.6,0.2-2.5,0.2c-0.9,0-1.8-0.1-2.6-0.2c-0.8-0.1-1.6-0.3-2.2-0.6c-0.7-0.3-1.2-0.7-1.7-1.2c-0.5-0.5-0.9-1.1-1.1-1.8
		c-0.3-0.7-0.4-1.5-0.4-2.5V1.3h2.9v8c0,1.1,0.2,2,0.7,2.6c0.4,0.6,1,1,1.8,1.2c0.8,0.2,1.7,0.3,2.7,0.3c1,0,1.8-0.1,2.6-0.3
		c0.8-0.2,1.4-0.6,1.8-1.2C149.9,11.3,150.1,10.5,150.1,9.3z"/>
	<path d="M159,11V8.7h6.5c0.8,0,1.4-0.2,1.9-0.6c0.5-0.4,0.7-1,0.7-1.8c0-0.8-0.2-1.4-0.7-1.8c-0.5-0.4-1.1-0.6-1.9-0.6h-6.2v11.9
		h-2.9V1.3h8.9c0.8,0,1.5,0.1,2.2,0.3c0.7,0.2,1.3,0.5,1.8,0.9c0.5,0.4,0.9,0.9,1.2,1.5c0.3,0.6,0.4,1.4,0.4,2.2
		c0,0.9-0.1,1.6-0.4,2.2s-0.7,1.1-1.2,1.5c-0.5,0.4-1.1,0.6-1.8,0.8c-0.7,0.2-1.4,0.2-2.2,0.2H159z"/>
</mask>
<path class="st5" d="M51,9.3v-8H54v8.3c0,0.9-0.1,1.8-0.4,2.5c-0.3,0.7-0.6,1.3-1.1,1.8c-0.5,0.5-1.1,0.9-1.8,1.2
	c-0.7,0.3-1.4,0.5-2.2,0.6C47.6,15.9,46.8,16,46,16c-0.9,0-1.8-0.1-2.6-0.2c-0.8-0.1-1.6-0.3-2.2-0.6c-0.7-0.3-1.2-0.7-1.7-1.2
	c-0.5-0.5-0.9-1.1-1.1-1.8c-0.3-0.7-0.4-1.5-0.4-2.5V1.3h2.9v8c0,1.1,0.2,2,0.7,2.6c0.4,0.6,1,1,1.8,1.2c0.8,0.2,1.7,0.3,2.7,0.3
	c1,0,1.8-0.1,2.6-0.3c0.8-0.2,1.4-0.6,1.8-1.2C50.8,11.3,51,10.5,51,9.3z"/>
<defs>
	
		<filter id="Adobe_OpacityMaskFilter_00000054947554623980856440000000051576717615306919_" filterUnits="userSpaceOnUse" x="56.1" y="0.7" width="14.3" height="15.6">
		<feColorMatrix  type="matrix" values="1 0 0 0 0  0 1 0 0 0  0 0 1 0 0  0 0 0 1 0"/>
	</filter>
</defs>
<mask maskUnits="userSpaceOnUse" x="56.1" y="0.7" width="14.3" height="15.6" id="path-1-outside-1_26_882_00000119115536955192463090000007736932402737573557_">
	
		<rect y="0" style="fill:#FFFFFF;filter:url(#Adobe_OpacityMaskFilter_00000054947554623980856440000000051576717615306919_);" width="172" height="17"/>
	<path d="M3.6,7.2h11.3v2.5H3.6V7.2z M14.4,1.3h2.9v14.4h-2.9V1.3z M1,1.3h2.9v14.4H1V1.3z"/>
	<path d="M23,12.6v-2.5h9.5v2.5H23z M19.5,15.7l6.7-14.4h3.2l6.8,14.4h-3.2l-5.9-13h1.4l-5.8,13H19.5z"/>
	<path d="M51,9.3v-8H54v8.3c0,0.9-0.1,1.8-0.4,2.5c-0.3,0.7-0.6,1.3-1.1,1.8c-0.5,0.5-1.1,0.9-1.8,1.2c-0.7,0.3-1.4,0.5-2.2,0.6
		C47.6,15.9,46.8,16,46,16c-0.9,0-1.8-0.1-2.6-0.2c-0.8-0.1-1.6-0.3-2.2-0.6c-0.7-0.3-1.2-0.7-1.7-1.2c-0.5-0.5-0.9-1.1-1.1-1.8
		c-0.3-0.7-0.4-1.5-0.4-2.5V1.3h2.9v8c0,1.1,0.2,2,0.7,2.6c0.4,0.6,1,1,1.8,1.2c0.8,0.2,1.7,0.3,2.7,0.3c1,0,1.8-0.1,2.6-0.3
		c0.8-0.2,1.4-0.6,1.8-1.2C50.8,11.3,51,10.5,51,9.3z"/>
	<path d="M56.4,10.8h3c0.1,0.5,0.3,1,0.7,1.4c0.4,0.4,1,0.7,1.6,1c0.7,0.2,1.4,0.3,2.2,0.3c0.8,0,1.4-0.1,1.9-0.2
		c0.5-0.2,0.8-0.4,1.1-0.7c0.2-0.3,0.4-0.7,0.4-1.1c0-0.4-0.1-0.7-0.4-0.9c-0.3-0.2-0.8-0.4-1.4-0.5c-0.6-0.1-1.5-0.3-2.5-0.4
		c-0.8-0.1-1.6-0.3-2.3-0.5c-0.7-0.2-1.4-0.5-1.9-0.8c-0.5-0.3-1-0.8-1.3-1.2c-0.3-0.5-0.5-1.1-0.5-1.8c0-0.8,0.2-1.6,0.7-2.2
		c0.5-0.6,1.2-1.1,2.1-1.5C60.7,1.2,61.8,1,63.2,1c2.1,0,3.6,0.4,4.8,1.3c1.1,0.9,1.7,2.1,1.6,3.6h-2.9c-0.1-0.9-0.4-1.5-1.1-1.9
		c-0.7-0.4-1.5-0.6-2.5-0.6c-0.9,0-1.7,0.1-2.3,0.4c-0.6,0.3-0.9,0.8-0.9,1.4c0,0.3,0.1,0.5,0.2,0.7c0.1,0.2,0.4,0.4,0.8,0.5
		c0.4,0.1,0.8,0.3,1.4,0.4c0.6,0.1,1.4,0.3,2.3,0.4c0.8,0.1,1.6,0.3,2.3,0.5c0.7,0.2,1.3,0.5,1.8,0.8c0.5,0.3,0.9,0.7,1.1,1.2
		c0.3,0.5,0.4,1.1,0.4,1.8c0,0.9-0.2,1.6-0.7,2.3c-0.4,0.6-1.1,1.1-2.1,1.5c-0.9,0.4-2.1,0.5-3.6,0.5c-1.1,0-2-0.1-2.8-0.3
		c-0.8-0.2-1.5-0.5-2.1-0.9c-0.6-0.4-1.1-0.8-1.4-1.3s-0.6-0.9-0.8-1.4C56.4,11.6,56.4,11.2,56.4,10.8z"/>
	<path d="M86.3,16c-1.3,0-2.5-0.2-3.6-0.5c-1.1-0.3-2-0.8-2.8-1.4c-0.8-0.6-1.4-1.4-1.8-2.3c-0.4-0.9-0.6-2-0.6-3.2
		c0-1.2,0.2-2.3,0.6-3.2C78.6,4.4,79.2,3.6,80,3c0.8-0.7,1.8-1.1,2.9-1.5C84,1.2,85.2,1,86.6,1c1.6,0,3,0.2,4.2,0.7
		c1.2,0.4,2.1,1.1,2.7,1.9c0.7,0.8,1.1,1.8,1.1,2.9h-2.8c-0.2-0.6-0.5-1.1-1-1.5c-0.4-0.4-1-0.8-1.7-1c-0.7-0.3-1.6-0.4-2.6-0.4
		c-1.3,0-2.4,0.2-3.3,0.6c-0.9,0.4-1.6,1-2.1,1.8c-0.5,0.8-0.7,1.6-0.7,2.7c0,1,0.2,1.9,0.6,2.6c0.4,0.7,1,1.3,1.9,1.6
		c0.9,0.4,2,0.6,3.3,0.6c1,0,1.9-0.1,2.7-0.4c0.8-0.3,1.5-0.7,2-1.1c0.5-0.5,0.9-1,1.1-1.6l1.1-0.4c-0.2,1.9-0.9,3.4-2.2,4.5
		C90,15.4,88.3,16,86.3,16z M92.6,15.7c0-0.5,0-1,0.1-1.6c0.1-0.6,0.1-1.2,0.2-1.8c0.1-0.6,0.2-1.2,0.2-1.7h-6.5V8.7h8.5v7H92.6z"/>
	<path d="M98.3,15.7V1.3h9.7c1.1,0,2.1,0.2,2.9,0.5c0.8,0.3,1.5,0.8,1.9,1.4c0.5,0.6,0.7,1.5,0.7,2.5c0,0.7-0.1,1.3-0.4,1.7
		s-0.6,0.9-1,1.2c-0.4,0.3-0.9,0.5-1.4,0.7c-0.5,0.1-1.1,0.2-1.7,0.3l-0.3-0.2c1,0,1.9,0.1,2.5,0.3c0.7,0.1,1.2,0.4,1.5,0.8
		c0.3,0.4,0.5,1,0.5,1.8v3.4h-2.9v-3.2c0-0.5-0.1-1-0.3-1.3c-0.2-0.3-0.5-0.5-1-0.6c-0.5-0.1-1.2-0.2-2.1-0.2h-5.6v5.3H98.3z
		 M101.2,8.1h6.8c0.8,0,1.5-0.2,1.9-0.6c0.4-0.4,0.7-0.9,0.7-1.6c0-0.7-0.2-1.1-0.7-1.5c-0.4-0.3-1.1-0.5-1.9-0.5h-6.8V8.1z"/>
	<path d="M125,16c-1.9,0-3.5-0.3-4.9-0.9c-1.3-0.6-2.4-1.5-3.1-2.6c-0.7-1.1-1.1-2.4-1.1-4c0-1.6,0.4-2.9,1.1-4
		c0.7-1.1,1.8-2,3.1-2.6c1.4-0.6,3-0.9,4.9-0.9c1.9,0,3.5,0.3,4.9,0.9c1.3,0.6,2.4,1.4,3.1,2.6c0.7,1.1,1.1,2.5,1.1,4
		c0,1.6-0.4,2.9-1.1,4c-0.7,1.1-1.7,2-3.1,2.6C128.6,15.7,127,16,125,16z M125,13.4c1.2,0,2.2-0.2,3.1-0.5c0.9-0.4,1.6-0.9,2.1-1.6
		c0.5-0.7,0.8-1.6,0.8-2.8s-0.3-2-0.8-2.8c-0.5-0.7-1.2-1.3-2.1-1.6c-0.9-0.4-1.9-0.6-3.1-0.6c-1.2,0-2.2,0.2-3.1,0.6
		c-0.9,0.4-1.6,0.9-2.1,1.6c-0.5,0.7-0.8,1.6-0.8,2.8s0.3,2,0.8,2.8c0.5,0.7,1.2,1.3,2.1,1.6S123.9,13.4,125,13.4z"/>
	<path d="M150.1,9.3v-8h2.9v8.3c0,0.9-0.1,1.8-0.4,2.5c-0.3,0.7-0.6,1.3-1.1,1.8c-0.5,0.5-1.1,0.9-1.8,1.2c-0.7,0.3-1.4,0.5-2.2,0.6
		c-0.8,0.1-1.6,0.2-2.5,0.2c-0.9,0-1.8-0.1-2.6-0.2c-0.8-0.1-1.6-0.3-2.2-0.6c-0.7-0.3-1.2-0.7-1.7-1.2c-0.5-0.5-0.9-1.1-1.1-1.8
		c-0.3-0.7-0.4-1.5-0.4-2.5V1.3h2.9v8c0,1.1,0.2,2,0.7,2.6c0.4,0.6,1,1,1.8,1.2c0.8,0.2,1.7,0.3,2.7,0.3c1,0,1.8-0.1,2.6-0.3
		c0.8-0.2,1.4-0.6,1.8-1.2C149.9,11.3,150.1,10.5,150.1,9.3z"/>
	<path d="M159,11V8.7h6.5c0.8,0,1.4-0.2,1.9-0.6c0.5-0.4,0.7-1,0.7-1.8c0-0.8-0.2-1.4-0.7-1.8c-0.5-0.4-1.1-0.6-1.9-0.6h-6.2v11.9
		h-2.9V1.3h8.9c0.8,0,1.5,0.1,2.2,0.3c0.7,0.2,1.3,0.5,1.8,0.9c0.5,0.4,0.9,0.9,1.2,1.5c0.3,0.6,0.4,1.4,0.4,2.2
		c0,0.9-0.1,1.6-0.4,2.2s-0.7,1.1-1.2,1.5c-0.5,0.4-1.1,0.6-1.8,0.8c-0.7,0.2-1.4,0.2-2.2,0.2H159z"/>
</mask>
<path class="st7" d="M56.4,10.8h3c0.1,0.5,0.3,1,0.7,1.4c0.4,0.4,1,0.7,1.6,1c0.7,0.2,1.4,0.3,2.2,0.3c0.8,0,1.4-0.1,1.9-0.2
	c0.5-0.2,0.8-0.4,1.1-0.7c0.2-0.3,0.4-0.7,0.4-1.1c0-0.4-0.1-0.7-0.4-0.9c-0.3-0.2-0.8-0.4-1.4-0.5c-0.6-0.1-1.5-0.3-2.5-0.4
	c-0.8-0.1-1.6-0.3-2.3-0.5c-0.7-0.2-1.4-0.5-1.9-0.8c-0.5-0.3-1-0.8-1.3-1.2c-0.3-0.5-0.5-1.1-0.5-1.8c0-0.8,0.2-1.6,0.7-2.2
	c0.5-0.6,1.2-1.1,2.1-1.5C60.7,1.2,61.8,1,63.2,1c2.1,0,3.6,0.4,4.8,1.3c1.1,0.9,1.7,2.1,1.6,3.6h-2.9c-0.1-0.9-0.4-1.5-1.1-1.9
	c-0.7-0.4-1.5-0.6-2.5-0.6c-0.9,0-1.7,0.1-2.3,0.4c-0.6,0.3-0.9,0.8-0.9,1.4c0,0.3,0.1,0.5,0.2,0.7c0.1,0.2,0.4,0.4,0.8,0.5
	c0.4,0.1,0.8,0.3,1.4,0.4c0.6,0.1,1.4,0.3,2.3,0.4c0.8,0.1,1.6,0.3,2.3,0.5c0.7,0.2,1.3,0.5,1.8,0.8c0.5,0.3,0.9,0.7,1.1,1.2
	c0.3,0.5,0.4,1.1,0.4,1.8c0,0.9-0.2,1.6-0.7,2.3c-0.4,0.6-1.1,1.1-2.1,1.5c-0.9,0.4-2.1,0.5-3.6,0.5c-1.1,0-2-0.1-2.8-0.3
	c-0.8-0.2-1.5-0.5-2.1-0.9c-0.6-0.4-1.1-0.8-1.4-1.3s-0.6-0.9-0.8-1.4C56.4,11.6,56.4,11.2,56.4,10.8z"/>
<defs>
	
		<filter id="Adobe_OpacityMaskFilter_00000076590995618507833080000016611572000913183904_" filterUnits="userSpaceOnUse" x="77.2" y="0.7" width="18.2" height="15.6">
		<feColorMatrix  type="matrix" values="1 0 0 0 0  0 1 0 0 0  0 0 1 0 0  0 0 0 1 0"/>
	</filter>
</defs>
<mask maskUnits="userSpaceOnUse" x="77.2" y="0.7" width="18.2" height="15.6" id="path-1-outside-1_26_882_00000039844185682096997860000018154060119873764030_">
	
		<rect y="0" style="fill:#FFFFFF;filter:url(#Adobe_OpacityMaskFilter_00000076590995618507833080000016611572000913183904_);" width="172" height="17"/>
	<path d="M3.6,7.2h11.3v2.5H3.6V7.2z M14.4,1.3h2.9v14.4h-2.9V1.3z M1,1.3h2.9v14.4H1V1.3z"/>
	<path d="M23,12.6v-2.5h9.5v2.5H23z M19.5,15.7l6.7-14.4h3.2l6.8,14.4h-3.2l-5.9-13h1.4l-5.8,13H19.5z"/>
	<path d="M51,9.3v-8H54v8.3c0,0.9-0.1,1.8-0.4,2.5c-0.3,0.7-0.6,1.3-1.1,1.8c-0.5,0.5-1.1,0.9-1.8,1.2c-0.7,0.3-1.4,0.5-2.2,0.6
		C47.6,15.9,46.8,16,46,16c-0.9,0-1.8-0.1-2.6-0.2c-0.8-0.1-1.6-0.3-2.2-0.6c-0.7-0.3-1.2-0.7-1.7-1.2c-0.5-0.5-0.9-1.1-1.1-1.8
		c-0.3-0.7-0.4-1.5-0.4-2.5V1.3h2.9v8c0,1.1,0.2,2,0.7,2.6c0.4,0.6,1,1,1.8,1.2c0.8,0.2,1.7,0.3,2.7,0.3c1,0,1.8-0.1,2.6-0.3
		c0.8-0.2,1.4-0.6,1.8-1.2C50.8,11.3,51,10.5,51,9.3z"/>
	<path d="M56.4,10.8h3c0.1,0.5,0.3,1,0.7,1.4c0.4,0.4,1,0.7,1.6,1c0.7,0.2,1.4,0.3,2.2,0.3c0.8,0,1.4-0.1,1.9-0.2
		c0.5-0.2,0.8-0.4,1.1-0.7c0.2-0.3,0.4-0.7,0.4-1.1c0-0.4-0.1-0.7-0.4-0.9c-0.3-0.2-0.8-0.4-1.4-0.5c-0.6-0.1-1.5-0.3-2.5-0.4
		c-0.8-0.1-1.6-0.3-2.3-0.5c-0.7-0.2-1.4-0.5-1.9-0.8c-0.5-0.3-1-0.8-1.3-1.2c-0.3-0.5-0.5-1.1-0.5-1.8c0-0.8,0.2-1.6,0.7-2.2
		c0.5-0.6,1.2-1.1,2.1-1.5C60.7,1.2,61.8,1,63.2,1c2.1,0,3.6,0.4,4.8,1.3c1.1,0.9,1.7,2.1,1.6,3.6h-2.9c-0.1-0.9-0.4-1.5-1.1-1.9
		c-0.7-0.4-1.5-0.6-2.5-0.6c-0.9,0-1.7,0.1-2.3,0.4c-0.6,0.3-0.9,0.8-0.9,1.4c0,0.3,0.1,0.5,0.2,0.7c0.1,0.2,0.4,0.4,0.8,0.5
		c0.4,0.1,0.8,0.3,1.4,0.4c0.6,0.1,1.4,0.3,2.3,0.4c0.8,0.1,1.6,0.3,2.3,0.5c0.7,0.2,1.3,0.5,1.8,0.8c0.5,0.3,0.9,0.7,1.1,1.2
		c0.3,0.5,0.4,1.1,0.4,1.8c0,0.9-0.2,1.6-0.7,2.3c-0.4,0.6-1.1,1.1-2.1,1.5c-0.9,0.4-2.1,0.5-3.6,0.5c-1.1,0-2-0.1-2.8-0.3
		c-0.8-0.2-1.5-0.5-2.1-0.9c-0.6-0.4-1.1-0.8-1.4-1.3s-0.6-0.9-0.8-1.4C56.4,11.6,56.4,11.2,56.4,10.8z"/>
	<path d="M86.3,16c-1.3,0-2.5-0.2-3.6-0.5c-1.1-0.3-2-0.8-2.8-1.4c-0.8-0.6-1.4-1.4-1.8-2.3c-0.4-0.9-0.6-2-0.6-3.2
		c0-1.2,0.2-2.3,0.6-3.2C78.6,4.4,79.2,3.6,80,3c0.8-0.7,1.8-1.1,2.9-1.5C84,1.2,85.2,1,86.6,1c1.6,0,3,0.2,4.2,0.7
		c1.2,0.4,2.1,1.1,2.7,1.9c0.7,0.8,1.1,1.8,1.1,2.9h-2.8c-0.2-0.6-0.5-1.1-1-1.5c-0.4-0.4-1-0.8-1.7-1c-0.7-0.3-1.6-0.4-2.6-0.4
		c-1.3,0-2.4,0.2-3.3,0.6c-0.9,0.4-1.6,1-2.1,1.8c-0.5,0.8-0.7,1.6-0.7,2.7c0,1,0.2,1.9,0.6,2.6c0.4,0.7,1,1.3,1.9,1.6
		c0.9,0.4,2,0.6,3.3,0.6c1,0,1.9-0.1,2.7-0.4c0.8-0.3,1.5-0.7,2-1.1c0.5-0.5,0.9-1,1.1-1.6l1.1-0.4c-0.2,1.9-0.9,3.4-2.2,4.5
		C90,15.4,88.3,16,86.3,16z M92.6,15.7c0-0.5,0-1,0.1-1.6c0.1-0.6,0.1-1.2,0.2-1.8c0.1-0.6,0.2-1.2,0.2-1.7h-6.5V8.7h8.5v7H92.6z"/>
	<path d="M98.3,15.7V1.3h9.7c1.1,0,2.1,0.2,2.9,0.5c0.8,0.3,1.5,0.8,1.9,1.4c0.5,0.6,0.7,1.5,0.7,2.5c0,0.7-0.1,1.3-0.4,1.7
		s-0.6,0.9-1,1.2c-0.4,0.3-0.9,0.5-1.4,0.7c-0.5,0.1-1.1,0.2-1.7,0.3l-0.3-0.2c1,0,1.9,0.1,2.5,0.3c0.7,0.1,1.2,0.4,1.5,0.8
		c0.3,0.4,0.5,1,0.5,1.8v3.4h-2.9v-3.2c0-0.5-0.1-1-0.3-1.3c-0.2-0.3-0.5-0.5-1-0.6c-0.5-0.1-1.2-0.2-2.1-0.2h-5.6v5.3H98.3z
		 M101.2,8.1h6.8c0.8,0,1.5-0.2,1.9-0.6c0.4-0.4,0.7-0.9,0.7-1.6c0-0.7-0.2-1.1-0.7-1.5c-0.4-0.3-1.1-0.5-1.9-0.5h-6.8V8.1z"/>
	<path d="M125,16c-1.9,0-3.5-0.3-4.9-0.9c-1.3-0.6-2.4-1.5-3.1-2.6c-0.7-1.1-1.1-2.4-1.1-4c0-1.6,0.4-2.9,1.1-4
		c0.7-1.1,1.8-2,3.1-2.6c1.4-0.6,3-0.9,4.9-0.9c1.9,0,3.5,0.3,4.9,0.9c1.3,0.6,2.4,1.4,3.1,2.6c0.7,1.1,1.1,2.5,1.1,4
		c0,1.6-0.4,2.9-1.1,4c-0.7,1.1-1.7,2-3.1,2.6C128.6,15.7,127,16,125,16z M125,13.4c1.2,0,2.2-0.2,3.1-0.5c0.9-0.4,1.6-0.9,2.1-1.6
		c0.5-0.7,0.8-1.6,0.8-2.8s-0.3-2-0.8-2.8c-0.5-0.7-1.2-1.3-2.1-1.6c-0.9-0.4-1.9-0.6-3.1-0.6c-1.2,0-2.2,0.2-3.1,0.6
		c-0.9,0.4-1.6,0.9-2.1,1.6c-0.5,0.7-0.8,1.6-0.8,2.8s0.3,2,0.8,2.8c0.5,0.7,1.2,1.3,2.1,1.6S123.9,13.4,125,13.4z"/>
	<path d="M150.1,9.3v-8h2.9v8.3c0,0.9-0.1,1.8-0.4,2.5c-0.3,0.7-0.6,1.3-1.1,1.8c-0.5,0.5-1.1,0.9-1.8,1.2c-0.7,0.3-1.4,0.5-2.2,0.6
		c-0.8,0.1-1.6,0.2-2.5,0.2c-0.9,0-1.8-0.1-2.6-0.2c-0.8-0.1-1.6-0.3-2.2-0.6c-0.7-0.3-1.2-0.7-1.7-1.2c-0.5-0.5-0.9-1.1-1.1-1.8
		c-0.3-0.7-0.4-1.5-0.4-2.5V1.3h2.9v8c0,1.1,0.2,2,0.7,2.6c0.4,0.6,1,1,1.8,1.2c0.8,0.2,1.7,0.3,2.7,0.3c1,0,1.8-0.1,2.6-0.3
		c0.8-0.2,1.4-0.6,1.8-1.2C149.9,11.3,150.1,10.5,150.1,9.3z"/>
	<path d="M159,11V8.7h6.5c0.8,0,1.4-0.2,1.9-0.6c0.5-0.4,0.7-1,0.7-1.8c0-0.8-0.2-1.4-0.7-1.8c-0.5-0.4-1.1-0.6-1.9-0.6h-6.2v11.9
		h-2.9V1.3h8.9c0.8,0,1.5,0.1,2.2,0.3c0.7,0.2,1.3,0.5,1.8,0.9c0.5,0.4,0.9,0.9,1.2,1.5c0.3,0.6,0.4,1.4,0.4,2.2
		c0,0.9-0.1,1.6-0.4,2.2s-0.7,1.1-1.2,1.5c-0.5,0.4-1.1,0.6-1.8,0.8c-0.7,0.2-1.4,0.2-2.2,0.2H159z"/>
</mask>
<path class="st9" d="M86.3,16c-1.3,0-2.5-0.2-3.6-0.5c-1.1-0.3-2-0.8-2.8-1.4c-0.8-0.6-1.4-1.4-1.8-2.3c-0.4-0.9-0.6-2-0.6-3.2
	c0-1.2,0.2-2.3,0.6-3.2C78.6,4.4,79.2,3.6,80,3c0.8-0.7,1.8-1.1,2.9-1.5C84,1.2,85.2,1,86.6,1c1.6,0,3,0.2,4.2,0.7
	c1.2,0.4,2.1,1.1,2.7,1.9c0.7,0.8,1.1,1.8,1.1,2.9h-2.8c-0.2-0.6-0.5-1.1-1-1.5c-0.4-0.4-1-0.8-1.7-1c-0.7-0.3-1.6-0.4-2.6-0.4
	c-1.3,0-2.4,0.2-3.3,0.6c-0.9,0.4-1.6,1-2.1,1.8c-0.5,0.8-0.7,1.6-0.7,2.7c0,1,0.2,1.9,0.6,2.6c0.4,0.7,1,1.3,1.9,1.6
	c0.9,0.4,2,0.6,3.3,0.6c1,0,1.9-0.1,2.7-0.4c0.8-0.3,1.5-0.7,2-1.1c0.5-0.5,0.9-1,1.1-1.6l1.1-0.4c-0.2,1.9-0.9,3.4-2.2,4.5
	C90,15.4,88.3,16,86.3,16z M92.6,15.7c0-0.5,0-1,0.1-1.6c0.1-0.6,0.1-1.2,0.2-1.8c0.1-0.6,0.2-1.2,0.2-1.7h-6.5V8.7h8.5v7H92.6z"/>
<defs>
	
		<filter id="Adobe_OpacityMaskFilter_00000171000540378868298440000006842512880644913590_" filterUnits="userSpaceOnUse" x="98" y="1" width="15.8" height="15">
		<feColorMatrix  type="matrix" values="1 0 0 0 0  0 1 0 0 0  0 0 1 0 0  0 0 0 1 0"/>
	</filter>
</defs>
<mask maskUnits="userSpaceOnUse" x="98" y="1" width="15.8" height="15" id="path-1-outside-1_26_882_00000146491327157807008720000007826493035282865594_">
	
		<rect y="0" style="fill:#FFFFFF;filter:url(#Adobe_OpacityMaskFilter_00000171000540378868298440000006842512880644913590_);" width="172" height="17"/>
	<path d="M3.6,7.2h11.3v2.5H3.6V7.2z M14.4,1.3h2.9v14.4h-2.9V1.3z M1,1.3h2.9v14.4H1V1.3z"/>
	<path d="M23,12.6v-2.5h9.5v2.5H23z M19.5,15.7l6.7-14.4h3.2l6.8,14.4h-3.2l-5.9-13h1.4l-5.8,13H19.5z"/>
	<path d="M51,9.3v-8H54v8.3c0,0.9-0.1,1.8-0.4,2.5c-0.3,0.7-0.6,1.3-1.1,1.8c-0.5,0.5-1.1,0.9-1.8,1.2c-0.7,0.3-1.4,0.5-2.2,0.6
		C47.6,15.9,46.8,16,46,16c-0.9,0-1.8-0.1-2.6-0.2c-0.8-0.1-1.6-0.3-2.2-0.6c-0.7-0.3-1.2-0.7-1.7-1.2c-0.5-0.5-0.9-1.1-1.1-1.8
		c-0.3-0.7-0.4-1.5-0.4-2.5V1.3h2.9v8c0,1.1,0.2,2,0.7,2.6c0.4,0.6,1,1,1.8,1.2c0.8,0.2,1.7,0.3,2.7,0.3c1,0,1.8-0.1,2.6-0.3
		c0.8-0.2,1.4-0.6,1.8-1.2C50.8,11.3,51,10.5,51,9.3z"/>
	<path d="M56.4,10.8h3c0.1,0.5,0.3,1,0.7,1.4c0.4,0.4,1,0.7,1.6,1c0.7,0.2,1.4,0.3,2.2,0.3c0.8,0,1.4-0.1,1.9-0.2
		c0.5-0.2,0.8-0.4,1.1-0.7c0.2-0.3,0.4-0.7,0.4-1.1c0-0.4-0.1-0.7-0.4-0.9c-0.3-0.2-0.8-0.4-1.4-0.5c-0.6-0.1-1.5-0.3-2.5-0.4
		c-0.8-0.1-1.6-0.3-2.3-0.5c-0.7-0.2-1.4-0.5-1.9-0.8c-0.5-0.3-1-0.8-1.3-1.2c-0.3-0.5-0.5-1.1-0.5-1.8c0-0.8,0.2-1.6,0.7-2.2
		c0.5-0.6,1.2-1.1,2.1-1.5C60.7,1.2,61.8,1,63.2,1c2.1,0,3.6,0.4,4.8,1.3c1.1,0.9,1.7,2.1,1.6,3.6h-2.9c-0.1-0.9-0.4-1.5-1.1-1.9
		c-0.7-0.4-1.5-0.6-2.5-0.6c-0.9,0-1.7,0.1-2.3,0.4c-0.6,0.3-0.9,0.8-0.9,1.4c0,0.3,0.1,0.5,0.2,0.7c0.1,0.2,0.4,0.4,0.8,0.5
		c0.4,0.1,0.8,0.3,1.4,0.4c0.6,0.1,1.4,0.3,2.3,0.4c0.8,0.1,1.6,0.3,2.3,0.5c0.7,0.2,1.3,0.5,1.8,0.8c0.5,0.3,0.9,0.7,1.1,1.2
		c0.3,0.5,0.4,1.1,0.4,1.8c0,0.9-0.2,1.6-0.7,2.3c-0.4,0.6-1.1,1.1-2.1,1.5c-0.9,0.4-2.1,0.5-3.6,0.5c-1.1,0-2-0.1-2.8-0.3
		c-0.8-0.2-1.5-0.5-2.1-0.9c-0.6-0.4-1.1-0.8-1.4-1.3s-0.6-0.9-0.8-1.4C56.4,11.6,56.4,11.2,56.4,10.8z"/>
	<path d="M86.3,16c-1.3,0-2.5-0.2-3.6-0.5c-1.1-0.3-2-0.8-2.8-1.4c-0.8-0.6-1.4-1.4-1.8-2.3c-0.4-0.9-0.6-2-0.6-3.2
		c0-1.2,0.2-2.3,0.6-3.2C78.6,4.4,79.2,3.6,80,3c0.8-0.7,1.8-1.1,2.9-1.5C84,1.2,85.2,1,86.6,1c1.6,0,3,0.2,4.2,0.7
		c1.2,0.4,2.1,1.1,2.7,1.9c0.7,0.8,1.1,1.8,1.1,2.9h-2.8c-0.2-0.6-0.5-1.1-1-1.5c-0.4-0.4-1-0.8-1.7-1c-0.7-0.3-1.6-0.4-2.6-0.4
		c-1.3,0-2.4,0.2-3.3,0.6c-0.9,0.4-1.6,1-2.1,1.8c-0.5,0.8-0.7,1.6-0.7,2.7c0,1,0.2,1.9,0.6,2.6c0.4,0.7,1,1.3,1.9,1.6
		c0.9,0.4,2,0.6,3.3,0.6c1,0,1.9-0.1,2.7-0.4c0.8-0.3,1.5-0.7,2-1.1c0.5-0.5,0.9-1,1.1-1.6l1.1-0.4c-0.2,1.9-0.9,3.4-2.2,4.5
		C90,15.4,88.3,16,86.3,16z M92.6,15.7c0-0.5,0-1,0.1-1.6c0.1-0.6,0.1-1.2,0.2-1.8c0.1-0.6,0.2-1.2,0.2-1.7h-6.5V8.7h8.5v7H92.6z"/>
	<path d="M98.3,15.7V1.3h9.7c1.1,0,2.1,0.2,2.9,0.5c0.8,0.3,1.5,0.8,1.9,1.4c0.5,0.6,0.7,1.5,0.7,2.5c0,0.7-0.1,1.3-0.4,1.7
		s-0.6,0.9-1,1.2c-0.4,0.3-0.9,0.5-1.4,0.7c-0.5,0.1-1.1,0.2-1.7,0.3l-0.3-0.2c1,0,1.9,0.1,2.5,0.3c0.7,0.1,1.2,0.4,1.5,0.8
		c0.3,0.4,0.5,1,0.5,1.8v3.4h-2.9v-3.2c0-0.5-0.1-1-0.3-1.3c-0.2-0.3-0.5-0.5-1-0.6c-0.5-0.1-1.2-0.2-2.1-0.2h-5.6v5.3H98.3z
		 M101.2,8.1h6.8c0.8,0,1.5-0.2,1.9-0.6c0.4-0.4,0.7-0.9,0.7-1.6c0-0.7-0.2-1.1-0.7-1.5c-0.4-0.3-1.1-0.5-1.9-0.5h-6.8V8.1z"/>
	<path d="M125,16c-1.9,0-3.5-0.3-4.9-0.9c-1.3-0.6-2.4-1.5-3.1-2.6c-0.7-1.1-1.1-2.4-1.1-4c0-1.6,0.4-2.9,1.1-4
		c0.7-1.1,1.8-2,3.1-2.6c1.4-0.6,3-0.9,4.9-0.9c1.9,0,3.5,0.3,4.9,0.9c1.3,0.6,2.4,1.4,3.1,2.6c0.7,1.1,1.1,2.5,1.1,4
		c0,1.6-0.4,2.9-1.1,4c-0.7,1.1-1.7,2-3.1,2.6C128.6,15.7,127,16,125,16z M125,13.4c1.2,0,2.2-0.2,3.1-0.5c0.9-0.4,1.6-0.9,2.1-1.6
		c0.5-0.7,0.8-1.6,0.8-2.8s-0.3-2-0.8-2.8c-0.5-0.7-1.2-1.3-2.1-1.6c-0.9-0.4-1.9-0.6-3.1-0.6c-1.2,0-2.2,0.2-3.1,0.6
		c-0.9,0.4-1.6,0.9-2.1,1.6c-0.5,0.7-0.8,1.6-0.8,2.8s0.3,2,0.8,2.8c0.5,0.7,1.2,1.3,2.1,1.6S123.9,13.4,125,13.4z"/>
	<path d="M150.1,9.3v-8h2.9v8.3c0,0.9-0.1,1.8-0.4,2.5c-0.3,0.7-0.6,1.3-1.1,1.8c-0.5,0.5-1.1,0.9-1.8,1.2c-0.7,0.3-1.4,0.5-2.2,0.6
		c-0.8,0.1-1.6,0.2-2.5,0.2c-0.9,0-1.8-0.1-2.6-0.2c-0.8-0.1-1.6-0.3-2.2-0.6c-0.7-0.3-1.2-0.7-1.7-1.2c-0.5-0.5-0.9-1.1-1.1-1.8
		c-0.3-0.7-0.4-1.5-0.4-2.5V1.3h2.9v8c0,1.1,0.2,2,0.7,2.6c0.4,0.6,1,1,1.8,1.2c0.8,0.2,1.7,0.3,2.7,0.3c1,0,1.8-0.1,2.6-0.3
		c0.8-0.2,1.4-0.6,1.8-1.2C149.9,11.3,150.1,10.5,150.1,9.3z"/>
	<path d="M159,11V8.7h6.5c0.8,0,1.4-0.2,1.9-0.6c0.5-0.4,0.7-1,0.7-1.8c0-0.8-0.2-1.4-0.7-1.8c-0.5-0.4-1.1-0.6-1.9-0.6h-6.2v11.9
		h-2.9V1.3h8.9c0.8,0,1.5,0.1,2.2,0.3c0.7,0.2,1.3,0.5,1.8,0.9c0.5,0.4,0.9,0.9,1.2,1.5c0.3,0.6,0.4,1.4,0.4,2.2
		c0,0.9-0.1,1.6-0.4,2.2s-0.7,1.1-1.2,1.5c-0.5,0.4-1.1,0.6-1.8,0.8c-0.7,0.2-1.4,0.2-2.2,0.2H159z"/>
</mask>
<path class="st11" d="M98.3,15.7V1.3h9.7c1.1,0,2.1,0.2,2.9,0.5c0.8,0.3,1.5,0.8,1.9,1.4c0.5,0.6,0.7,1.5,0.7,2.5
	c0,0.7-0.1,1.3-0.4,1.7s-0.6,0.9-1,1.2c-0.4,0.3-0.9,0.5-1.4,0.7c-0.5,0.1-1.1,0.2-1.7,0.3l-0.3-0.2c1,0,1.9,0.1,2.5,0.3
	c0.7,0.1,1.2,0.4,1.5,0.8c0.3,0.4,0.5,1,0.5,1.8v3.4h-2.9v-3.2c0-0.5-0.1-1-0.3-1.3c-0.2-0.3-0.5-0.5-1-0.6
	c-0.5-0.1-1.2-0.2-2.1-0.2h-5.6v5.3H98.3z M101.2,8.1h6.8c0.8,0,1.5-0.2,1.9-0.6c0.4-0.4,0.7-0.9,0.7-1.6c0-0.7-0.2-1.1-0.7-1.5
	c-0.4-0.3-1.1-0.5-1.9-0.5h-6.8V8.1z"/>
<defs>
	
		<filter id="Adobe_OpacityMaskFilter_00000124850178717031974100000007741327223322069936_" filterUnits="userSpaceOnUse" x="115.7" y="0.7" width="18.7" height="15.6">
		<feColorMatrix  type="matrix" values="1 0 0 0 0  0 1 0 0 0  0 0 1 0 0  0 0 0 1 0"/>
	</filter>
</defs>
<mask maskUnits="userSpaceOnUse" x="115.7" y="0.7" width="18.7" height="15.6" id="path-1-outside-1_26_882_00000105410699806201907730000000690656629338451352_">
	
		<rect y="0" style="fill:#FFFFFF;filter:url(#Adobe_OpacityMaskFilter_00000124850178717031974100000007741327223322069936_);" width="172" height="17"/>
	<path d="M3.6,7.2h11.3v2.5H3.6V7.2z M14.4,1.3h2.9v14.4h-2.9V1.3z M1,1.3h2.9v14.4H1V1.3z"/>
	<path d="M23,12.6v-2.5h9.5v2.5H23z M19.5,15.7l6.7-14.4h3.2l6.8,14.4h-3.2l-5.9-13h1.4l-5.8,13H19.5z"/>
	<path d="M51,9.3v-8H54v8.3c0,0.9-0.1,1.8-0.4,2.5c-0.3,0.7-0.6,1.3-1.1,1.8c-0.5,0.5-1.1,0.9-1.8,1.2c-0.7,0.3-1.4,0.5-2.2,0.6
		C47.6,15.9,46.8,16,46,16c-0.9,0-1.8-0.1-2.6-0.2c-0.8-0.1-1.6-0.3-2.2-0.6c-0.7-0.3-1.2-0.7-1.7-1.2c-0.5-0.5-0.9-1.1-1.1-1.8
		c-0.3-0.7-0.4-1.5-0.4-2.5V1.3h2.9v8c0,1.1,0.2,2,0.7,2.6c0.4,0.6,1,1,1.8,1.2c0.8,0.2,1.7,0.3,2.7,0.3c1,0,1.8-0.1,2.6-0.3
		c0.8-0.2,1.4-0.6,1.8-1.2C50.8,11.3,51,10.5,51,9.3z"/>
	<path d="M56.4,10.8h3c0.1,0.5,0.3,1,0.7,1.4c0.4,0.4,1,0.7,1.6,1c0.7,0.2,1.4,0.3,2.2,0.3c0.8,0,1.4-0.1,1.9-0.2
		c0.5-0.2,0.8-0.4,1.1-0.7c0.2-0.3,0.4-0.7,0.4-1.1c0-0.4-0.1-0.7-0.4-0.9c-0.3-0.2-0.8-0.4-1.4-0.5c-0.6-0.1-1.5-0.3-2.5-0.4
		c-0.8-0.1-1.6-0.3-2.3-0.5c-0.7-0.2-1.4-0.5-1.9-0.8c-0.5-0.3-1-0.8-1.3-1.2c-0.3-0.5-0.5-1.1-0.5-1.8c0-0.8,0.2-1.6,0.7-2.2
		c0.5-0.6,1.2-1.1,2.1-1.5C60.7,1.2,61.8,1,63.2,1c2.1,0,3.6,0.4,4.8,1.3c1.1,0.9,1.7,2.1,1.6,3.6h-2.9c-0.1-0.9-0.4-1.5-1.1-1.9
		c-0.7-0.4-1.5-0.6-2.5-0.6c-0.9,0-1.7,0.1-2.3,0.4c-0.6,0.3-0.9,0.8-0.9,1.4c0,0.3,0.1,0.5,0.2,0.7c0.1,0.2,0.4,0.4,0.8,0.5
		c0.4,0.1,0.8,0.3,1.4,0.4c0.6,0.1,1.4,0.3,2.3,0.4c0.8,0.1,1.6,0.3,2.3,0.5c0.7,0.2,1.3,0.5,1.8,0.8c0.5,0.3,0.9,0.7,1.1,1.2
		c0.3,0.5,0.4,1.1,0.4,1.8c0,0.9-0.2,1.6-0.7,2.3c-0.4,0.6-1.1,1.1-2.1,1.5c-0.9,0.4-2.1,0.5-3.6,0.5c-1.1,0-2-0.1-2.8-0.3
		c-0.8-0.2-1.5-0.5-2.1-0.9c-0.6-0.4-1.1-0.8-1.4-1.3s-0.6-0.9-0.8-1.4C56.4,11.6,56.4,11.2,56.4,10.8z"/>
	<path d="M86.3,16c-1.3,0-2.5-0.2-3.6-0.5c-1.1-0.3-2-0.8-2.8-1.4c-0.8-0.6-1.4-1.4-1.8-2.3c-0.4-0.9-0.6-2-0.6-3.2
		c0-1.2,0.2-2.3,0.6-3.2C78.6,4.4,79.2,3.6,80,3c0.8-0.7,1.8-1.1,2.9-1.5C84,1.2,85.2,1,86.6,1c1.6,0,3,0.2,4.2,0.7
		c1.2,0.4,2.1,1.1,2.7,1.9c0.7,0.8,1.1,1.8,1.1,2.9h-2.8c-0.2-0.6-0.5-1.1-1-1.5c-0.4-0.4-1-0.8-1.7-1c-0.7-0.3-1.6-0.4-2.6-0.4
		c-1.3,0-2.4,0.2-3.3,0.6c-0.9,0.4-1.6,1-2.1,1.8c-0.5,0.8-0.7,1.6-0.7,2.7c0,1,0.2,1.9,0.6,2.6c0.4,0.7,1,1.3,1.9,1.6
		c0.9,0.4,2,0.6,3.3,0.6c1,0,1.9-0.1,2.7-0.4c0.8-0.3,1.5-0.7,2-1.1c0.5-0.5,0.9-1,1.1-1.6l1.1-0.4c-0.2,1.9-0.9,3.4-2.2,4.5
		C90,15.4,88.3,16,86.3,16z M92.6,15.7c0-0.5,0-1,0.1-1.6c0.1-0.6,0.1-1.2,0.2-1.8c0.1-0.6,0.2-1.2,0.2-1.7h-6.5V8.7h8.5v7H92.6z"/>
	<path d="M98.3,15.7V1.3h9.7c1.1,0,2.1,0.2,2.9,0.5c0.8,0.3,1.5,0.8,1.9,1.4c0.5,0.6,0.7,1.5,0.7,2.5c0,0.7-0.1,1.3-0.4,1.7
		s-0.6,0.9-1,1.2c-0.4,0.3-0.9,0.5-1.4,0.7c-0.5,0.1-1.1,0.2-1.7,0.3l-0.3-0.2c1,0,1.9,0.1,2.5,0.3c0.7,0.1,1.2,0.4,1.5,0.8
		c0.3,0.4,0.5,1,0.5,1.8v3.4h-2.9v-3.2c0-0.5-0.1-1-0.3-1.3c-0.2-0.3-0.5-0.5-1-0.6c-0.5-0.1-1.2-0.2-2.1-0.2h-5.6v5.3H98.3z
		 M101.2,8.1h6.8c0.8,0,1.5-0.2,1.9-0.6c0.4-0.4,0.7-0.9,0.7-1.6c0-0.7-0.2-1.1-0.7-1.5c-0.4-0.3-1.1-0.5-1.9-0.5h-6.8V8.1z"/>
	<path d="M125,16c-1.9,0-3.5-0.3-4.9-0.9c-1.3-0.6-2.4-1.5-3.1-2.6c-0.7-1.1-1.1-2.4-1.1-4c0-1.6,0.4-2.9,1.1-4
		c0.7-1.1,1.8-2,3.1-2.6c1.4-0.6,3-0.9,4.9-0.9c1.9,0,3.5,0.3,4.9,0.9c1.3,0.6,2.4,1.4,3.1,2.6c0.7,1.1,1.1,2.5,1.1,4
		c0,1.6-0.4,2.9-1.1,4c-0.7,1.1-1.7,2-3.1,2.6C128.6,15.7,127,16,125,16z M125,13.4c1.2,0,2.2-0.2,3.1-0.5c0.9-0.4,1.6-0.9,2.1-1.6
		c0.5-0.7,0.8-1.6,0.8-2.8s-0.3-2-0.8-2.8c-0.5-0.7-1.2-1.3-2.1-1.6c-0.9-0.4-1.9-0.6-3.1-0.6c-1.2,0-2.2,0.2-3.1,0.6
		c-0.9,0.4-1.6,0.9-2.1,1.6c-0.5,0.7-0.8,1.6-0.8,2.8s0.3,2,0.8,2.8c0.5,0.7,1.2,1.3,2.1,1.6S123.9,13.4,125,13.4z"/>
	<path d="M150.1,9.3v-8h2.9v8.3c0,0.9-0.1,1.8-0.4,2.5c-0.3,0.7-0.6,1.3-1.1,1.8c-0.5,0.5-1.1,0.9-1.8,1.2c-0.7,0.3-1.4,0.5-2.2,0.6
		c-0.8,0.1-1.6,0.2-2.5,0.2c-0.9,0-1.8-0.1-2.6-0.2c-0.8-0.1-1.6-0.3-2.2-0.6c-0.7-0.3-1.2-0.7-1.7-1.2c-0.5-0.5-0.9-1.1-1.1-1.8
		c-0.3-0.7-0.4-1.5-0.4-2.5V1.3h2.9v8c0,1.1,0.2,2,0.7,2.6c0.4,0.6,1,1,1.8,1.2c0.8,0.2,1.7,0.3,2.7,0.3c1,0,1.8-0.1,2.6-0.3
		c0.8-0.2,1.4-0.6,1.8-1.2C149.9,11.3,150.1,10.5,150.1,9.3z"/>
	<path d="M159,11V8.7h6.5c0.8,0,1.4-0.2,1.9-0.6c0.5-0.4,0.7-1,0.7-1.8c0-0.8-0.2-1.4-0.7-1.8c-0.5-0.4-1.1-0.6-1.9-0.6h-6.2v11.9
		h-2.9V1.3h8.9c0.8,0,1.5,0.1,2.2,0.3c0.7,0.2,1.3,0.5,1.8,0.9c0.5,0.4,0.9,0.9,1.2,1.5c0.3,0.6,0.4,1.4,0.4,2.2
		c0,0.9-0.1,1.6-0.4,2.2s-0.7,1.1-1.2,1.5c-0.5,0.4-1.1,0.6-1.8,0.8c-0.7,0.2-1.4,0.2-2.2,0.2H159z"/>
</mask>
<path class="st13" d="M125,16c-1.9,0-3.5-0.3-4.9-0.9c-1.3-0.6-2.4-1.5-3.1-2.6c-0.7-1.1-1.1-2.4-1.1-4c0-1.6,0.4-2.9,1.1-4
	c0.7-1.1,1.8-2,3.1-2.6c1.4-0.6,3-0.9,4.9-0.9c1.9,0,3.5,0.3,4.9,0.9c1.3,0.6,2.4,1.4,3.1,2.6c0.7,1.1,1.1,2.5,1.1,4
	c0,1.6-0.4,2.9-1.1,4c-0.7,1.1-1.7,2-3.1,2.6C128.6,15.7,127,16,125,16z M125,13.4c1.2,0,2.2-0.2,3.1-0.5c0.9-0.4,1.6-0.9,2.1-1.6
	c0.5-0.7,0.8-1.6,0.8-2.8s-0.3-2-0.8-2.8c-0.5-0.7-1.2-1.3-2.1-1.6c-0.9-0.4-1.9-0.6-3.1-0.6c-1.2,0-2.2,0.2-3.1,0.6
	c-0.9,0.4-1.6,0.9-2.1,1.6c-0.5,0.7-0.8,1.6-0.8,2.8s0.3,2,0.8,2.8c0.5,0.7,1.2,1.3,2.1,1.6S123.9,13.4,125,13.4z"/>
<defs>
	
		<filter id="Adobe_OpacityMaskFilter_00000152985206299775488290000005023067216618937258_" filterUnits="userSpaceOnUse" x="136.7" y="1" width="16.7" height="15.3">
		<feColorMatrix  type="matrix" values="1 0 0 0 0  0 1 0 0 0  0 0 1 0 0  0 0 0 1 0"/>
	</filter>
</defs>
<mask maskUnits="userSpaceOnUse" x="136.7" y="1" width="16.7" height="15.3" id="path-1-outside-1_26_882_00000109710264159057906090000015001453580548951711_">
	
		<rect y="0" style="fill:#FFFFFF;filter:url(#Adobe_OpacityMaskFilter_00000152985206299775488290000005023067216618937258_);" width="172" height="17"/>
	<path d="M3.6,7.2h11.3v2.5H3.6V7.2z M14.4,1.3h2.9v14.4h-2.9V1.3z M1,1.3h2.9v14.4H1V1.3z"/>
	<path d="M23,12.6v-2.5h9.5v2.5H23z M19.5,15.7l6.7-14.4h3.2l6.8,14.4h-3.2l-5.9-13h1.4l-5.8,13H19.5z"/>
	<path d="M51,9.3v-8H54v8.3c0,0.9-0.1,1.8-0.4,2.5c-0.3,0.7-0.6,1.3-1.1,1.8c-0.5,0.5-1.1,0.9-1.8,1.2c-0.7,0.3-1.4,0.5-2.2,0.6
		C47.6,15.9,46.8,16,46,16c-0.9,0-1.8-0.1-2.6-0.2c-0.8-0.1-1.6-0.3-2.2-0.6c-0.7-0.3-1.2-0.7-1.7-1.2c-0.5-0.5-0.9-1.1-1.1-1.8
		c-0.3-0.7-0.4-1.5-0.4-2.5V1.3h2.9v8c0,1.1,0.2,2,0.7,2.6c0.4,0.6,1,1,1.8,1.2c0.8,0.2,1.7,0.3,2.7,0.3c1,0,1.8-0.1,2.6-0.3
		c0.8-0.2,1.4-0.6,1.8-1.2C50.8,11.3,51,10.5,51,9.3z"/>
	<path d="M56.4,10.8h3c0.1,0.5,0.3,1,0.7,1.4c0.4,0.4,1,0.7,1.6,1c0.7,0.2,1.4,0.3,2.2,0.3c0.8,0,1.4-0.1,1.9-0.2
		c0.5-0.2,0.8-0.4,1.1-0.7c0.2-0.3,0.4-0.7,0.4-1.1c0-0.4-0.1-0.7-0.4-0.9c-0.3-0.2-0.8-0.4-1.4-0.5c-0.6-0.1-1.5-0.3-2.5-0.4
		c-0.8-0.1-1.6-0.3-2.3-0.5c-0.7-0.2-1.4-0.5-1.9-0.8c-0.5-0.3-1-0.8-1.3-1.2c-0.3-0.5-0.5-1.1-0.5-1.8c0-0.8,0.2-1.6,0.7-2.2
		c0.5-0.6,1.2-1.1,2.1-1.5C60.7,1.2,61.8,1,63.2,1c2.1,0,3.6,0.4,4.8,1.3c1.1,0.9,1.7,2.1,1.6,3.6h-2.9c-0.1-0.9-0.4-1.5-1.1-1.9
		c-0.7-0.4-1.5-0.6-2.5-0.6c-0.9,0-1.7,0.1-2.3,0.4c-0.6,0.3-0.9,0.8-0.9,1.4c0,0.3,0.1,0.5,0.2,0.7c0.1,0.2,0.4,0.4,0.8,0.5
		c0.4,0.1,0.8,0.3,1.4,0.4c0.6,0.1,1.4,0.3,2.3,0.4c0.8,0.1,1.6,0.3,2.3,0.5c0.7,0.2,1.3,0.5,1.8,0.8c0.5,0.3,0.9,0.7,1.1,1.2
		c0.3,0.5,0.4,1.1,0.4,1.8c0,0.9-0.2,1.6-0.7,2.3c-0.4,0.6-1.1,1.1-2.1,1.5c-0.9,0.4-2.1,0.5-3.6,0.5c-1.1,0-2-0.1-2.8-0.3
		c-0.8-0.2-1.5-0.5-2.1-0.9c-0.6-0.4-1.1-0.8-1.4-1.3s-0.6-0.9-0.8-1.4C56.4,11.6,56.4,11.2,56.4,10.8z"/>
	<path d="M86.3,16c-1.3,0-2.5-0.2-3.6-0.5c-1.1-0.3-2-0.8-2.8-1.4c-0.8-0.6-1.4-1.4-1.8-2.3c-0.4-0.9-0.6-2-0.6-3.2
		c0-1.2,0.2-2.3,0.6-3.2C78.6,4.4,79.2,3.6,80,3c0.8-0.7,1.8-1.1,2.9-1.5C84,1.2,85.2,1,86.6,1c1.6,0,3,0.2,4.2,0.7
		c1.2,0.4,2.1,1.1,2.7,1.9c0.7,0.8,1.1,1.8,1.1,2.9h-2.8c-0.2-0.6-0.5-1.1-1-1.5c-0.4-0.4-1-0.8-1.7-1c-0.7-0.3-1.6-0.4-2.6-0.4
		c-1.3,0-2.4,0.2-3.3,0.6c-0.9,0.4-1.6,1-2.1,1.8c-0.5,0.8-0.7,1.6-0.7,2.7c0,1,0.2,1.9,0.6,2.6c0.4,0.7,1,1.3,1.9,1.6
		c0.9,0.4,2,0.6,3.3,0.6c1,0,1.9-0.1,2.7-0.4c0.8-0.3,1.5-0.7,2-1.1c0.5-0.5,0.9-1,1.1-1.6l1.1-0.4c-0.2,1.9-0.9,3.4-2.2,4.5
		C90,15.4,88.3,16,86.3,16z M92.6,15.7c0-0.5,0-1,0.1-1.6c0.1-0.6,0.1-1.2,0.2-1.8c0.1-0.6,0.2-1.2,0.2-1.7h-6.5V8.7h8.5v7H92.6z"/>
	<path d="M98.3,15.7V1.3h9.7c1.1,0,2.1,0.2,2.9,0.5c0.8,0.3,1.5,0.8,1.9,1.4c0.5,0.6,0.7,1.5,0.7,2.5c0,0.7-0.1,1.3-0.4,1.7
		s-0.6,0.9-1,1.2c-0.4,0.3-0.9,0.5-1.4,0.7c-0.5,0.1-1.1,0.2-1.7,0.3l-0.3-0.2c1,0,1.9,0.1,2.5,0.3c0.7,0.1,1.2,0.4,1.5,0.8
		c0.3,0.4,0.5,1,0.5,1.8v3.4h-2.9v-3.2c0-0.5-0.1-1-0.3-1.3c-0.2-0.3-0.5-0.5-1-0.6c-0.5-0.1-1.2-0.2-2.1-0.2h-5.6v5.3H98.3z
		 M101.2,8.1h6.8c0.8,0,1.5-0.2,1.9-0.6c0.4-0.4,0.7-0.9,0.7-1.6c0-0.7-0.2-1.1-0.7-1.5c-0.4-0.3-1.1-0.5-1.9-0.5h-6.8V8.1z"/>
	<path d="M125,16c-1.9,0-3.5-0.3-4.9-0.9c-1.3-0.6-2.4-1.5-3.1-2.6c-0.7-1.1-1.1-2.4-1.1-4c0-1.6,0.4-2.9,1.1-4
		c0.7-1.1,1.8-2,3.1-2.6c1.4-0.6,3-0.9,4.9-0.9c1.9,0,3.5,0.3,4.9,0.9c1.3,0.6,2.4,1.4,3.1,2.6c0.7,1.1,1.1,2.5,1.1,4
		c0,1.6-0.4,2.9-1.1,4c-0.7,1.1-1.7,2-3.1,2.6C128.6,15.7,127,16,125,16z M125,13.4c1.2,0,2.2-0.2,3.1-0.5c0.9-0.4,1.6-0.9,2.1-1.6
		c0.5-0.7,0.8-1.6,0.8-2.8s-0.3-2-0.8-2.8c-0.5-0.7-1.2-1.3-2.1-1.6c-0.9-0.4-1.9-0.6-3.1-0.6c-1.2,0-2.2,0.2-3.1,0.6
		c-0.9,0.4-1.6,0.9-2.1,1.6c-0.5,0.7-0.8,1.6-0.8,2.8s0.3,2,0.8,2.8c0.5,0.7,1.2,1.3,2.1,1.6S123.9,13.4,125,13.4z"/>
	<path d="M150.1,9.3v-8h2.9v8.3c0,0.9-0.1,1.8-0.4,2.5c-0.3,0.7-0.6,1.3-1.1,1.8c-0.5,0.5-1.1,0.9-1.8,1.2c-0.7,0.3-1.4,0.5-2.2,0.6
		c-0.8,0.1-1.6,0.2-2.5,0.2c-0.9,0-1.8-0.1-2.6-0.2c-0.8-0.1-1.6-0.3-2.2-0.6c-0.7-0.3-1.2-0.7-1.7-1.2c-0.5-0.5-0.9-1.1-1.1-1.8
		c-0.3-0.7-0.4-1.5-0.4-2.5V1.3h2.9v8c0,1.1,0.2,2,0.7,2.6c0.4,0.6,1,1,1.8,1.2c0.8,0.2,1.7,0.3,2.7,0.3c1,0,1.8-0.1,2.6-0.3
		c0.8-0.2,1.4-0.6,1.8-1.2C149.9,11.3,150.1,10.5,150.1,9.3z"/>
	<path d="M159,11V8.7h6.5c0.8,0,1.4-0.2,1.9-0.6c0.5-0.4,0.7-1,0.7-1.8c0-0.8-0.2-1.4-0.7-1.8c-0.5-0.4-1.1-0.6-1.9-0.6h-6.2v11.9
		h-2.9V1.3h8.9c0.8,0,1.5,0.1,2.2,0.3c0.7,0.2,1.3,0.5,1.8,0.9c0.5,0.4,0.9,0.9,1.2,1.5c0.3,0.6,0.4,1.4,0.4,2.2
		c0,0.9-0.1,1.6-0.4,2.2s-0.7,1.1-1.2,1.5c-0.5,0.4-1.1,0.6-1.8,0.8c-0.7,0.2-1.4,0.2-2.2,0.2H159z"/>
</mask>
<path class="st15" d="M150.1,9.3v-8h2.9v8.3c0,0.9-0.1,1.8-0.4,2.5c-0.3,0.7-0.6,1.3-1.1,1.8c-0.5,0.5-1.1,0.9-1.8,1.2
	c-0.7,0.3-1.4,0.5-2.2,0.6c-0.8,0.1-1.6,0.2-2.5,0.2c-0.9,0-1.8-0.1-2.6-0.2c-0.8-0.1-1.6-0.3-2.2-0.6c-0.7-0.3-1.2-0.7-1.7-1.2
	c-0.5-0.5-0.9-1.1-1.1-1.8c-0.3-0.7-0.4-1.5-0.4-2.5V1.3h2.9v8c0,1.1,0.2,2,0.7,2.6c0.4,0.6,1,1,1.8,1.2c0.8,0.2,1.7,0.3,2.7,0.3
	c1,0,1.8-0.1,2.6-0.3c0.8-0.2,1.4-0.6,1.8-1.2C149.9,11.3,150.1,10.5,150.1,9.3z"/>
<defs>
	
		<filter id="Adobe_OpacityMaskFilter_00000145751540757626842160000001684028717071152547_" filterUnits="userSpaceOnUse" x="156.1" y="1" width="15.2" height="15">
		<feColorMatrix  type="matrix" values="1 0 0 0 0  0 1 0 0 0  0 0 1 0 0  0 0 0 1 0"/>
	</filter>
</defs>
<mask maskUnits="userSpaceOnUse" x="156.1" y="1" width="15.2" height="15" id="path-1-outside-1_26_882_00000034805486450128816740000016967279532109295018_">
	
		<rect y="0" style="fill:#FFFFFF;filter:url(#Adobe_OpacityMaskFilter_00000145751540757626842160000001684028717071152547_);" width="172" height="17"/>
	<path d="M3.6,7.2h11.3v2.5H3.6V7.2z M14.4,1.3h2.9v14.4h-2.9V1.3z M1,1.3h2.9v14.4H1V1.3z"/>
	<path d="M23,12.6v-2.5h9.5v2.5H23z M19.5,15.7l6.7-14.4h3.2l6.8,14.4h-3.2l-5.9-13h1.4l-5.8,13H19.5z"/>
	<path d="M51,9.3v-8H54v8.3c0,0.9-0.1,1.8-0.4,2.5c-0.3,0.7-0.6,1.3-1.1,1.8c-0.5,0.5-1.1,0.9-1.8,1.2c-0.7,0.3-1.4,0.5-2.2,0.6
		C47.6,15.9,46.8,16,46,16c-0.9,0-1.8-0.1-2.6-0.2c-0.8-0.1-1.6-0.3-2.2-0.6c-0.7-0.3-1.2-0.7-1.7-1.2c-0.5-0.5-0.9-1.1-1.1-1.8
		c-0.3-0.7-0.4-1.5-0.4-2.5V1.3h2.9v8c0,1.1,0.2,2,0.7,2.6c0.4,0.6,1,1,1.8,1.2c0.8,0.2,1.7,0.3,2.7,0.3c1,0,1.8-0.1,2.6-0.3
		c0.8-0.2,1.4-0.6,1.8-1.2C50.8,11.3,51,10.5,51,9.3z"/>
	<path d="M56.4,10.8h3c0.1,0.5,0.3,1,0.7,1.4c0.4,0.4,1,0.7,1.6,1c0.7,0.2,1.4,0.3,2.2,0.3c0.8,0,1.4-0.1,1.9-0.2
		c0.5-0.2,0.8-0.4,1.1-0.7c0.2-0.3,0.4-0.7,0.4-1.1c0-0.4-0.1-0.7-0.4-0.9c-0.3-0.2-0.8-0.4-1.4-0.5c-0.6-0.1-1.5-0.3-2.5-0.4
		c-0.8-0.1-1.6-0.3-2.3-0.5c-0.7-0.2-1.4-0.5-1.9-0.8c-0.5-0.3-1-0.8-1.3-1.2c-0.3-0.5-0.5-1.1-0.5-1.8c0-0.8,0.2-1.6,0.7-2.2
		c0.5-0.6,1.2-1.1,2.1-1.5C60.7,1.2,61.8,1,63.2,1c2.1,0,3.6,0.4,4.8,1.3c1.1,0.9,1.7,2.1,1.6,3.6h-2.9c-0.1-0.9-0.4-1.5-1.1-1.9
		c-0.7-0.4-1.5-0.6-2.5-0.6c-0.9,0-1.7,0.1-2.3,0.4c-0.6,0.3-0.9,0.8-0.9,1.4c0,0.3,0.1,0.5,0.2,0.7c0.1,0.2,0.4,0.4,0.8,0.5
		c0.4,0.1,0.8,0.3,1.4,0.4c0.6,0.1,1.4,0.3,2.3,0.4c0.8,0.1,1.6,0.3,2.3,0.5c0.7,0.2,1.3,0.5,1.8,0.8c0.5,0.3,0.9,0.7,1.1,1.2
		c0.3,0.5,0.4,1.1,0.4,1.8c0,0.9-0.2,1.6-0.7,2.3c-0.4,0.6-1.1,1.1-2.1,1.5c-0.9,0.4-2.1,0.5-3.6,0.5c-1.1,0-2-0.1-2.8-0.3
		c-0.8-0.2-1.5-0.5-2.1-0.9c-0.6-0.4-1.1-0.8-1.4-1.3s-0.6-0.9-0.8-1.4C56.4,11.6,56.4,11.2,56.4,10.8z"/>
	<path d="M86.3,16c-1.3,0-2.5-0.2-3.6-0.5c-1.1-0.3-2-0.8-2.8-1.4c-0.8-0.6-1.4-1.4-1.8-2.3c-0.4-0.9-0.6-2-0.6-3.2
		c0-1.2,0.2-2.3,0.6-3.2C78.6,4.4,79.2,3.6,80,3c0.8-0.7,1.8-1.1,2.9-1.5C84,1.2,85.2,1,86.6,1c1.6,0,3,0.2,4.2,0.7
		c1.2,0.4,2.1,1.1,2.7,1.9c0.7,0.8,1.1,1.8,1.1,2.9h-2.8c-0.2-0.6-0.5-1.1-1-1.5c-0.4-0.4-1-0.8-1.7-1c-0.7-0.3-1.6-0.4-2.6-0.4
		c-1.3,0-2.4,0.2-3.3,0.6c-0.9,0.4-1.6,1-2.1,1.8c-0.5,0.8-0.7,1.6-0.7,2.7c0,1,0.2,1.9,0.6,2.6c0.4,0.7,1,1.3,1.9,1.6
		c0.9,0.4,2,0.6,3.3,0.6c1,0,1.9-0.1,2.7-0.4c0.8-0.3,1.5-0.7,2-1.1c0.5-0.5,0.9-1,1.1-1.6l1.1-0.4c-0.2,1.9-0.9,3.4-2.2,4.5
		C90,15.4,88.3,16,86.3,16z M92.6,15.7c0-0.5,0-1,0.1-1.6c0.1-0.6,0.1-1.2,0.2-1.8c0.1-0.6,0.2-1.2,0.2-1.7h-6.5V8.7h8.5v7H92.6z"/>
	<path d="M98.3,15.7V1.3h9.7c1.1,0,2.1,0.2,2.9,0.5c0.8,0.3,1.5,0.8,1.9,1.4c0.5,0.6,0.7,1.5,0.7,2.5c0,0.7-0.1,1.3-0.4,1.7
		s-0.6,0.9-1,1.2c-0.4,0.3-0.9,0.5-1.4,0.7c-0.5,0.1-1.1,0.2-1.7,0.3l-0.3-0.2c1,0,1.9,0.1,2.5,0.3c0.7,0.1,1.2,0.4,1.5,0.8
		c0.3,0.4,0.5,1,0.5,1.8v3.4h-2.9v-3.2c0-0.5-0.1-1-0.3-1.3c-0.2-0.3-0.5-0.5-1-0.6c-0.5-0.1-1.2-0.2-2.1-0.2h-5.6v5.3H98.3z
		 M101.2,8.1h6.8c0.8,0,1.5-0.2,1.9-0.6c0.4-0.4,0.7-0.9,0.7-1.6c0-0.7-0.2-1.1-0.7-1.5c-0.4-0.3-1.1-0.5-1.9-0.5h-6.8V8.1z"/>
	<path d="M125,16c-1.9,0-3.5-0.3-4.9-0.9c-1.3-0.6-2.4-1.5-3.1-2.6c-0.7-1.1-1.1-2.4-1.1-4c0-1.6,0.4-2.9,1.1-4
		c0.7-1.1,1.8-2,3.1-2.6c1.4-0.6,3-0.9,4.9-0.9c1.9,0,3.5,0.3,4.9,0.9c1.3,0.6,2.4,1.4,3.1,2.6c0.7,1.1,1.1,2.5,1.1,4
		c0,1.6-0.4,2.9-1.1,4c-0.7,1.1-1.7,2-3.1,2.6C128.6,15.7,127,16,125,16z M125,13.4c1.2,0,2.2-0.2,3.1-0.5c0.9-0.4,1.6-0.9,2.1-1.6
		c0.5-0.7,0.8-1.6,0.8-2.8s-0.3-2-0.8-2.8c-0.5-0.7-1.2-1.3-2.1-1.6c-0.9-0.4-1.9-0.6-3.1-0.6c-1.2,0-2.2,0.2-3.1,0.6
		c-0.9,0.4-1.6,0.9-2.1,1.6c-0.5,0.7-0.8,1.6-0.8,2.8s0.3,2,0.8,2.8c0.5,0.7,1.2,1.3,2.1,1.6S123.9,13.4,125,13.4z"/>
	<path d="M150.1,9.3v-8h2.9v8.3c0,0.9-0.1,1.8-0.4,2.5c-0.3,0.7-0.6,1.3-1.1,1.8c-0.5,0.5-1.1,0.9-1.8,1.2c-0.7,0.3-1.4,0.5-2.2,0.6
		c-0.8,0.1-1.6,0.2-2.5,0.2c-0.9,0-1.8-0.1-2.6-0.2c-0.8-0.1-1.6-0.3-2.2-0.6c-0.7-0.3-1.2-0.7-1.7-1.2c-0.5-0.5-0.9-1.1-1.1-1.8
		c-0.3-0.7-0.4-1.5-0.4-2.5V1.3h2.9v8c0,1.1,0.2,2,0.7,2.6c0.4,0.6,1,1,1.8,1.2c0.8,0.2,1.7,0.3,2.7,0.3c1,0,1.8-0.1,2.6-0.3
		c0.8-0.2,1.4-0.6,1.8-1.2C149.9,11.3,150.1,10.5,150.1,9.3z"/>
	<path d="M159,11V8.7h6.5c0.8,0,1.4-0.2,1.9-0.6c0.5-0.4,0.7-1,0.7-1.8c0-0.8-0.2-1.4-0.7-1.8c-0.5-0.4-1.1-0.6-1.9-0.6h-6.2v11.9
		h-2.9V1.3h8.9c0.8,0,1.5,0.1,2.2,0.3c0.7,0.2,1.3,0.5,1.8,0.9c0.5,0.4,0.9,0.9,1.2,1.5c0.3,0.6,0.4,1.4,0.4,2.2
		c0,0.9-0.1,1.6-0.4,2.2s-0.7,1.1-1.2,1.5c-0.5,0.4-1.1,0.6-1.8,0.8c-0.7,0.2-1.4,0.2-2.2,0.2H159z"/>
</mask>
<path class="st17" d="M159,11V8.7h6.5c0.8,0,1.4-0.2,1.9-0.6c0.5-0.4,0.7-1,0.7-1.8c0-0.8-0.2-1.4-0.7-1.8c-0.5-0.4-1.1-0.6-1.9-0.6
	h-6.2v11.9h-2.9V1.3h8.9c0.8,0,1.5,0.1,2.2,0.3c0.7,0.2,1.3,0.5,1.8,0.9c0.5,0.4,0.9,0.9,1.2,1.5c0.3,0.6,0.4,1.4,0.4,2.2
	c0,0.9-0.1,1.6-0.4,2.2s-0.7,1.1-1.2,1.5c-0.5,0.4-1.1,0.6-1.8,0.8c-0.7,0.2-1.4,0.2-2.2,0.2H159z"/>
</svg>
