<svg version="1.1" id="1194106333" xmlns="http://www.w3.org/2000/svg" xmlns:xlink="http://www.w3.org/1999/xlink" x="0px" y="0px" viewBox="0 0 118.3 115" style="enable-background:new 0 0 118.3 115;" xml:space="preserve" class="svg u_1194106333" data-icon-custom="true" data-icon-name="world_shipping-01.svg"> <style type="text/css" id="1823765595">.st0-1135636079{fill:#231F20;}</style> 
 <g id="1426556423"> <path class="st0-1135636079" d="M111.8,30c-0.1-0.3-0.3-0.7-0.7-1.3c-0.4-0.6-0.8-0.9-1.1-1c-1.3-0.9-3.3-1.3-7.4,0.4
		C93,14.7,77.7,6.7,61.2,6.7c-28,0-50.8,22.8-50.8,50.8c0,1.2,0,2.5,0.1,3.7c0,0,0,0.1-0.1,0.1C5.5,70.5,4.9,78.2,8.9,83
		c3.1,3.7,7.2,5.5,12.2,5.6c9.3,12,23.8,19.7,40.1,19.7c28,0,50.8-22.8,50.8-50.8c0-6.6-1.3-13.1-3.7-19.1
		C112.1,34,112.3,31.7,111.8,30z M107.6,31.1C107.6,31.1,107.6,31.2,107.6,31.1l-0.1,0L107.6,31.1c0.1,0.1,0.1,0.1,0.1,0.1
		c0,0.1,0.1,0.1,0.1,0.1c0,0.2-0.1,1.6-3.6,5.2c-0.1,0.1-0.2,0.2-0.4,0.4c-0.1,0.1-0.2,0.2-0.3,0.3c-0.1,0.1-0.1,0.1-0.2,0.2
		c-1.4,1.4-3.3,3.1-5.7,5.1c0,0,0,0-0.1,0c-0.3,0.3-0.7,0.6-1,0.8c0,0,0,0,0,0c-0.4,0.3-0.8,0.6-1.1,0.9c0,0,0,0,0,0
		c-0.4,0.3-0.7,0.6-1.1,0.9c-0.1,0.1-0.1,0.1-0.2,0.2c-0.4,0.3-0.8,0.6-1.2,1c-0.6,0.4-1,1-1.3,1.6c0,0,0,0,0,0.1
		c0,0.1-0.1,0.2-0.1,0.3c0,0.1-0.1,0.2-0.1,0.3c0,0,0,0.1,0,0.1c0,0.1-0.1,0.3-0.1,0.4c0,0.1,0,0.2,0,0.3c0,0.3-0.1,0.5,0,0.8
		l0.2,5.1c0.1,1.1,0.1,2.8,0.2,3.7c0,0.1,0,0.2,0,0.2c0,0.1,0,0.3,0,0.4c0,0.1,0,0.1,0,0.1l1,23.7l-10-24.1c-0.4-1-1.3-1.8-2.4-2.1
		c-0.2,0-0.3-0.1-0.5-0.1c-0.1,0-0.1,0-0.2,0c-0.1,0-0.2,0-0.3,0c0,0-0.1,0-0.1,0c0,0,0,0-0.1,0c-0.1,0-0.3,0-0.4,0c0,0,0,0,0,0
		c-0.2,0-0.3,0.1-0.5,0.1c0,0-0.1,0-0.1,0c-0.1,0-0.2,0.1-0.3,0.1c0,0-0.1,0-0.1,0.1c-0.1,0.1-0.3,0.2-0.4,0.2
		c-4.2,2.8-7.8,5.1-10.2,6.6c0,0-0.1,0-0.1,0.1c-0.2,0.1-0.4,0.3-0.6,0.4c-0.1,0-0.1,0.1-0.2,0.1c-0.1,0.1-0.3,0.2-0.4,0.2
		c-0.8,0.5-1.3,0.8-1.6,1c-0.9,0.5-1.4,1.4-1.4,2.4c0,0.4,0,0.8,0,1.2c0,0.8,0,1.6-0.1,2.5c-0.1,2.1-0.2,4.1-0.3,5.8l-2.5-5.2
		L58.2,70c0-0.1-0.1-0.2-0.1-0.2c0-0.1-0.1-0.1-0.1-0.2c0,0,0-0.1-0.1-0.1L57,68.4l0,0l0,0c0,0-0.1-0.1-0.1-0.1c0,0,0-0.1-0.1-0.1
		c-0.1-0.1-0.1-0.1-0.2-0.2l-6.5-5.8c2.3,0.5,5.3,1.2,8,1.9c0.4,0.1,0.8,0.2,1.2,0.3c1,0.3,2,0,2.7-0.7c1-1,5.5-5.1,11.7-10.2
		c0,0,0,0,0.1-0.1c0.7-0.6,1.1-1.4,1.2-2.3c0,0,0-0.1,0-0.1c0-0.1,0-0.2,0-0.2c0-0.1,0-0.1,0-0.2v0v0c0-1.1-0.5-2.2-1.4-2.9
		L53.3,31.4L75.7,39l1.2,0.4l7.9,2.7c1.4,0.5,3,0.2,4.2-0.6c0.4-0.3,0.9-0.6,1.3-0.9c0.1-0.1,0.2-0.1,0.2-0.2c0.4-0.3,0.7-0.5,1-0.7
		c0.1-0.1,0.1-0.1,0.2-0.2c1.2-0.9,2.4-1.7,3.5-2.4c0,0,0,0,0,0c0.3-0.2,0.7-0.4,1-0.7c0,0,0,0,0,0c0.3-0.2,0.7-0.4,1-0.6
		c0,0,0,0,0,0c0.9-0.5,1.7-1,2.4-1.5c1.1-0.6,2.1-1.2,3-1.6c0,0,0,0,0,0C106.4,30.8,107.4,31.1,107.6,31.1z M61.2,11
		c14.9,0,28.7,7,37.5,19c-2,1.1-4.4,2.6-7.1,4.5c0,0,0,0,0,0c-0.5,0.3-1,0.7-1.5,1c-0.1,0.1-0.2,0.1-0.3,0.2
		c-0.4,0.3-0.8,0.6-1.3,0.9c-0.1,0.1-0.3,0.2-0.4,0.3c-0.5,0.3-1,0.7-1.4,1.1c-0.1,0.1-0.1,0.1-0.2,0.1c-0.1,0.1-0.2,0.1-0.3,0.1
		l-2.4-0.8l-2.4-0.8l-14.6-4.9l-13-4.4c-0.1,0-0.2-0.1-0.3-0.1c-0.8-0.2-1.6,0-2.2,0.5l-1.2,0.9c-0.5,0.4-1,1-1.2,1.6
		c0,0.1-0.1,0.2-0.1,0.3c0,0,0,0.1,0,0.1c0,0.1,0,0.1,0,0.2c0,0,0,0,0,0.1c0,0.1,0,0.2,0,0.2c-0.1,1,0.2,2,0.8,2.8
		c0.2,0.2,0.3,0.3,0.5,0.5l20.5,16.4c-3.5,2.9-6.4,5.5-8.5,7.4c-0.1,0.1-0.2,0.2-0.4,0.3c-0.2,0.2-0.5,0.4-0.7,0.6
		c-0.2,0.2-0.5,0.4-0.7,0.6c-0.2,0.2-0.4,0.4-0.6,0.6c-3-0.8-6.2-1.5-8.7-2.1c-1.6-0.3-2.9-0.6-3.6-0.7c-0.3-0.1-0.6-0.1-0.9,0
		c0,0,0,0,0,0c-0.1,0-0.2,0-0.3,0.1c0,0-0.1,0-0.1,0c0,0-0.1,0-0.1,0.1c-0.7,0.3-1.3,0.8-1.6,1.5v0l0,0l0,0.1l-0.3,0.8
		c-0.1,0.3-0.2,0.6-0.2,0.8c0,0,0,0,0,0c0,0.1,0,0.2,0,0.3c0,0,0,0.1,0,0.1c0,0.1,0,0.1,0,0.2c0,0.1,0,0.2,0,0.2c0,0,0,0.1,0,0.1
		c0.1,0.5,0.4,1,0.8,1.4l7.8,6.9c-6,4.3-12.8,9.2-22.5,12.7c-2.4,0.9-4.7,1.4-6.7,1.6c-5.3-7.6-8.5-16.8-8.5-26.8
		C14.7,31.8,35.6,11,61.2,11z M12.1,80.3c-2-2.4-2.1-6.5-0.4-11.4c1.2,5.4,3.3,10.5,6.2,15.1C15.6,83.3,13.7,82.1,12.1,80.3z
		 M61.2,104c-14,0-26.5-6.2-35-15.9c1.7-0.3,3.4-0.8,5.2-1.5c10.3-3.7,17.4-8.8,23.7-13.4l2.1,4.4l2.6,5.4c0.2,0.4,0.5,0.7,0.8,1
		c0.5,0.4,1.2,0.6,1.9,0.6c0,0,0.1,0,0.1,0l0.9-0.1c0.7-0.1,1.4-0.5,1.8-1c0.3-0.4,0.6-0.9,0.6-1.5c0.2-1.7,0.6-7.5,0.7-12.6
		c1.8-1.1,5.5-3.4,10-6.4c0.1,0,0.1-0.1,0.2-0.1c0.6-0.4,1.3-0.8,1.9-1.3l10.1,24.3c0.1,0.2,0.1,0.3,0.2,0.5c0,0,0,0,0,0
		c0.1,0.1,0.2,0.3,0.3,0.4c0,0,0,0,0,0.1c0.1,0.1,0.2,0.2,0.3,0.3c0,0,0,0,0.1,0.1c0.1,0.1,0.2,0.2,0.4,0.3c0,0,0.1,0,0.1,0.1
		c0.1,0.1,0.3,0.2,0.4,0.2c0,0,0.1,0,0.1,0c0.1,0.1,0.3,0.1,0.4,0.2c0,0,0,0,0.1,0c0.2,0,0.3,0.1,0.5,0.1c0,0,0,0,0,0
		c0.2,0,0.3,0,0.5,0c0,0,0,0,0,0c0,0,0,0,0,0c0.1,0,0.2,0,0.2,0c0,0,0,0,0.1,0c0.7-0.1,1.3-0.3,1.9-0.7l1.2-0.9
		c0.1,0,0.1-0.1,0.2-0.1c0,0,0.1-0.1,0.1-0.1c0,0,0,0,0.1-0.1c0.4-0.4,0.6-0.9,0.7-1.4c0,0,0,0,0,0c0-0.1,0-0.2,0-0.3
		c0-0.1,0-0.2,0-0.3l-1.1-24.5c0,0,0-0.2,0-0.5c0-0.9-0.1-2.8-0.2-4l-0.2-5c0-0.1,0-0.1,0-0.2c0-0.1,0.1-0.1,0.1-0.1
		c0.5-0.4,1-0.8,1.5-1.1c3.4-2.7,6.1-5,8.2-6.9c1.8,5.1,2.8,10.4,2.8,15.8C107.7,83.2,86.9,104,61.2,104z" id="1048785016"></path> 
</g> 
</svg>