<?xml version="1.0" encoding="UTF-8"?><svg id="Layer_1" xmlns="http://www.w3.org/2000/svg" viewBox="0 0 231 21"><path d="M7.66,.45c1.68,0,3.09,.21,4.22,.62,1.14,.42,2.04,.98,2.71,1.7,.67,.7,1.15,1.52,1.44,2.45,.3,.93,.46,1.9,.46,2.93s-.16,2.03-.48,2.98c-.32,.94-.83,1.78-1.54,2.52-.69,.72-1.59,1.3-2.71,1.73-1.12,.42-2.49,.62-4.1,.62H.2V.45H7.66ZM2.93,13.6H7.64c1.18,0,2.17-.15,2.95-.46,.78-.3,1.41-.71,1.87-1.22,.46-.53,.79-1.11,.98-1.75,.19-.66,.29-1.33,.29-2.02s-.1-1.34-.29-1.97c-.19-.64-.52-1.21-.98-1.7-.46-.51-1.09-.91-1.87-1.2-.78-.3-1.77-.46-2.95-.46H2.93V13.6Zm19.32-1.25v-2.33h9.26v2.33h-9.26Zm-3.6,3.65L25.44,.45h2.93l6.84,15.55h-2.95L26.31,1.96h1.2l-5.93,14.04h-2.93ZM39.15,.45h2.74v15.55h-2.74V.45Zm7.06,10.39h2.66c.06,.59,.3,1.13,.7,1.61,.42,.46,.96,.83,1.63,1.1,.69,.26,1.47,.38,2.35,.38,.78,0,1.43-.1,1.94-.29s.89-.46,1.13-.79c.26-.35,.38-.76,.38-1.22s-.15-.82-.46-1.08c-.29-.27-.74-.5-1.34-.67-.61-.19-1.38-.38-2.33-.55-.78-.14-1.54-.34-2.28-.58s-1.4-.54-1.99-.91c-.58-.37-1.03-.82-1.37-1.34-.34-.54-.5-1.18-.5-1.92,0-.83,.23-1.58,.7-2.26,.48-.67,1.18-1.2,2.11-1.58s2.06-.58,3.38-.58c2.03,0,3.58,.47,4.66,1.42,1.07,.93,1.59,2.19,1.56,3.79h-2.62c-.05-1.01-.42-1.74-1.1-2.18s-1.56-.67-2.62-.67c-.94,0-1.74,.17-2.38,.5-.64,.34-.96,.88-.96,1.63,0,.32,.07,.6,.22,.84,.16,.22,.42,.43,.77,.62,.35,.18,.83,.35,1.44,.53,.62,.16,1.38,.34,2.28,.53,.77,.13,1.49,.3,2.16,.53,.67,.22,1.26,.5,1.75,.84,.51,.34,.91,.77,1.2,1.3s.43,1.18,.43,1.94c0,.88-.22,1.66-.67,2.35-.45,.67-1.14,1.21-2.06,1.61-.91,.38-2.1,.58-3.55,.58-1.1,0-2.07-.13-2.9-.38-.82-.27-1.51-.62-2.09-1.03-.58-.43-1.04-.9-1.39-1.39-.34-.5-.58-.98-.72-1.44-.13-.48-.17-.89-.12-1.22v-.02ZM77.66,.45l-6.34,10.49v5.06h-2.74v-5.06L62.26,.45h3.14l5.35,9.17h-1.49L74.54,.45h3.12Zm10.25,15.55V.45h7.92c1.9,0,3.36,.36,4.37,1.08,1.02,.7,1.54,1.73,1.54,3.07,0,.86-.2,1.55-.6,2.06-.38,.5-.94,.87-1.66,1.13-.72,.24-1.57,.39-2.54,.46l.1-.14c.7,.02,1.37,.08,1.99,.19,.64,.1,1.2,.27,1.68,.53,.5,.26,.88,.62,1.15,1.08,.29,.45,.43,1.03,.43,1.75,0,.96-.24,1.75-.72,2.38-.48,.62-1.14,1.1-1.99,1.44-.85,.32-1.82,.5-2.93,.53h-8.74Zm2.74-2.34h5.59c1.04,0,1.85-.18,2.42-.53,.58-.37,.86-.94,.86-1.7,0-.61-.18-1.05-.53-1.32-.35-.29-.81-.47-1.37-.55-.54-.08-1.13-.12-1.75-.12h-5.23v4.22h.01Zm0-6.5h5.02c1.04,0,1.84-.18,2.4-.53,.58-.37,.86-.94,.86-1.73s-.29-1.31-.86-1.63c-.56-.34-1.3-.5-2.21-.5h-5.21V7.17Zm24.08,9.12c-1.82,0-3.42-.33-4.78-.98-1.34-.66-2.39-1.58-3.14-2.78-.74-1.2-1.1-2.63-1.1-4.3s.37-3.1,1.1-4.3c.75-1.22,1.8-2.14,3.14-2.78,1.36-.66,2.95-.98,4.78-.98s3.43,.33,4.78,.98c1.34,.64,2.38,1.57,3.12,2.78,.75,1.2,1.13,2.63,1.13,4.3s-.38,3.1-1.13,4.3c-.74,1.2-1.78,2.13-3.12,2.78-1.34,.66-2.94,.98-4.78,.98Zm0-2.4c1.22,0,2.29-.21,3.22-.62,.93-.42,1.66-1.04,2.18-1.87,.54-.85,.82-1.9,.82-3.17s-.27-2.29-.82-3.12c-.53-.85-1.26-1.48-2.18-1.9-.93-.43-2-.65-3.22-.65s-2.27,.22-3.22,.65c-.94,.42-1.69,1.05-2.23,1.9-.54,.83-.82,1.87-.82,3.12s.27,2.32,.82,3.17c.54,.83,1.29,1.46,2.23,1.87s2.02,.62,3.22,.62Zm26.35-4.44V.45h2.71V9.66c0,.98-.14,1.83-.41,2.57-.26,.74-.62,1.36-1.1,1.87-.48,.51-1.05,.94-1.7,1.27-.66,.32-1.38,.55-2.16,.7-.77,.14-1.58,.22-2.45,.22s-1.74-.07-2.54-.22c-.8-.14-1.53-.38-2.18-.7-.66-.34-1.22-.76-1.7-1.27-.46-.51-.83-1.14-1.1-1.87-.26-.74-.38-1.59-.38-2.57V.45h2.74V9.45c0,1.22,.22,2.14,.67,2.78,.46,.62,1.09,1.06,1.87,1.3s1.66,.36,2.64,.36,1.8-.12,2.57-.36,1.38-.67,1.85-1.3c.46-.64,.7-1.57,.7-2.78h-.03ZM147.26,.45h14.93V2.8h-14.93V.45h0Zm6.12,2.06h2.71v13.49h-2.71V2.51Zm12.74-2.06h2.74v15.55h-2.74s0-15.55,0-15.55Zm15.15,14.52h2.69v5.83h-2.69s0-5.83,0-5.83Zm1.34,1.32c-1.82,0-3.42-.33-4.78-.98-1.34-.66-2.39-1.58-3.14-2.78-.74-1.2-1.1-2.63-1.1-4.3s.37-3.1,1.1-4.3c.75-1.22,1.8-2.14,3.14-2.78,1.36-.66,2.95-.98,4.78-.98s3.43,.33,4.78,.98c1.34,.64,2.38,1.57,3.12,2.78,.75,1.2,1.13,2.63,1.13,4.3s-.38,3.1-1.13,4.3c-.74,1.2-1.78,2.13-3.12,2.78s-2.94,.98-4.78,.98Zm0-2.4c1.22,0,2.29-.21,3.22-.62,.93-.42,1.66-1.04,2.18-1.87,.54-.85,.82-1.9,.82-3.17s-.27-2.29-.82-3.12c-.53-.85-1.26-1.48-2.18-1.9-.93-.43-2-.65-3.22-.65s-2.27,.22-3.22,.65c-.94,.42-1.69,1.05-2.23,1.9-.54,.83-.82,1.87-.82,3.12s.27,2.32,.82,3.17c.54,.83,1.29,1.46,2.23,1.87s2.02,.62,3.22,.62Zm26.35-4.44V.45h2.71V9.66c0,.98-.14,1.83-.41,2.57-.26,.74-.62,1.36-1.1,1.87-.48,.51-1.05,.94-1.7,1.27-.66,.32-1.38,.55-2.16,.7-.77,.14-1.58,.22-2.45,.22s-1.74-.07-2.54-.22c-.8-.14-1.53-.38-2.18-.7-.66-.34-1.22-.76-1.7-1.27-.46-.51-.83-1.14-1.1-1.87-.26-.74-.38-1.59-.38-2.57V.45h2.74V9.45c0,1.22,.22,2.14,.67,2.78,.46,.62,1.09,1.06,1.87,1.3s1.66,.36,2.64,.36,1.8-.12,2.57-.36,1.38-.67,1.85-1.3c.46-.64,.7-1.57,.7-2.78h-.03Zm10.35-.07v4.27h10.92v2.35h-13.66V.45h13.63V2.8h-10.9V7.12h8.93v2.26h-8.92Z"/></svg>