<svg version="1.1" id="1173562521" xmlns="http://www.w3.org/2000/svg" xmlns:xlink="http://www.w3.org/1999/xlink" x="0px" y="0px" viewBox="0 0 118.3 115" style="enable-background:new 0 0 118.3 115;" xml:space="preserve" class="svg u_1173562521" data-icon-custom="true" data-icon-name="secure_payments-01.svg"> <g id="1785914318"> <polygon points="54.1,54.7 15.1,54.7 15.1,58.2 54.1,58.2 	" id="1647430665"></polygon> 
 <path d="M71.5,67.2h14.8c1.6,0,2.8-1.3,2.8-2.8v-6.9c0-1.6-1.3-2.8-2.8-2.8H71.5c-1.6,0-2.8,1.3-2.8,2.8v6.9
		C68.6,66,69.9,67.2,71.5,67.2z" id="1490556988"></path> 
 <polygon points="34.6,63.7 15.1,63.7 15.1,67.2 34.6,67.2 	" id="1554300285"></polygon> 
 <path d="M112.1,76.3v-4.4c0-5-4.1-9.1-9.1-9.1v-9.5l0-4.1V25.8c0-4.1-3.3-7.4-7.4-7.4H70.7h-7.1H29.2h-7.1H9.7
		c-4.1,0-7.4,3.3-7.4,7.4v55.9c0,4.1,3.3,7.4,7.4,7.5H90v7.6h26V76.3H112.1z M5.8,25.8c0-2.2,1.7-3.9,3.9-3.9h85.9
		c2.2,0,3.9,1.7,3.9,3.9v13.3H5.8V25.8z M9.7,85.5c-2.2,0-3.9-1.7-3.9-3.9v-39h93.7v20.9c-3.3,1.4-5.6,4.6-5.6,8.4v4.4H90v9.2H9.7z
		 M109.1,76.3H96.9V72c0-3.3,2.7-6.1,6.1-6.1c3.4,0,6.1,2.7,6.1,6.1V76.3z" id="1617019085"></path> 
</g> 
</svg>